<?xml version="1.0" encoding="UTF-8"?>
<svg id="a" data-name="Layer 1" xmlns="http://www.w3.org/2000/svg" viewBox="0 0 450 100.88">
  <rect x="6.39" y="2.53" width="670.72" height="104.33" style="fill: none;"/>
  <g>
    <path d="M6.39,73.44l.12,1.11-.04-2.31-.07,1.19Z" style="fill: none; stroke: #010101; stroke-width: 1.49px;"/>
    <path d="M6.5,74.56l-.04-2.31-.07,1.19,.12,1.11Z" style="fill: none; stroke: #010101; stroke-width: 1.49px;"/>
    <path d="M265.57,35.49l-5.21,1.62-4.69,1.42-3.27,.97-2.76,.74-1.31,.32-1.27,.26-1.14,.2-.53,.05h-1.52l-.41-.08-.34-.15-.27-.2-.19-.22-.13-.27-.07-.31v-.72l.07-.56,.12-.59,.16-.64,.22-.72,.25-.76,.51-1.44,.38-1,.81-2.06,1.28-3.21,4.13-10.32h-3.03l-1.52,2.33-1.53,2.25-1.48,2.07-1.52,2.04-1.59,2.04-1.47,1.79-1.61,1.79-1.65,1.79-.83,.9-.84,.83-1.05,.96-1.16,1.02-1.16,.9-1.15,.84-.74,.48-.78,.45-.75,.37-.72,.27-.44,.11-.4,.05h-.6l-.17-.05-.15-.08-.14-.1-.12-.12-.11-.13-.13-.27-.09-.33v-.89l.1-.57,.15-.61,.15-.48,.17-.48,.27-.63,.26-.64,.51-.96,.57-.96,.64-.96,.54-.74,.58-.74,.9-1.07,.96-1.03,1-1.01,1.08-.96,1.02-.83,1.09-.8,1.23-.8,1.28-.73,.66-.34,.67-.31,.9-.39,.94-.34,.96-.29,.19-.25,.2-.24,.2-.25,.19-.25,.19-.24,.2-.26,.18-.24,.17-.26,.19-.26,.18-.25,.18-.26,.18-.26,.18-.26,.18-.26,.17-.26,.18-.26,.16-.26-3.38,.29-1.68,.19-1.66,.21-1.65,.24-1.61,.28-1.87,.36-1.8,.42-1.71,.45-1.68,.52-1.65,.58-1.62,.66-1.48,.67-1.46,.73-1.43,.8-1.62,.97-1.59,1.05-1.53,1.1-1.28,.96-1.29,.99-1.96,1.58-1.97,1.64-2.14,1.84-1.43,1.26-2.91,2.5,1.27-1.79,2.69-3.9,1.34-1.96,1.31-1.97,1.71-2.64,1.62-2.69,1.53-2.69h-3.85l-4.15,3.48-4.2,3.41-2.76,2.18-2.77,2.14-2.78,2.11-2.79,2.05-2.8,1.99-3.05,2.11-3.07,2.03-1.53,.98-1.54,.96-1.74,1.04-1.57,.9-1.55,.9-1.44,.74-1.1,.55-1.09,.5-.99,.42-.96,.39-.8,.27-.75,.23-.8,.2-.75,.12h-1.13l-.39-.1-.32-.16-.22-.19-.17-.23-.1-.28v-.73l.04-.3,3.54-1.73,1.79-.9,2.69-1.43,2.14-1.21,2.11-1.27,1.88-1.2,1.86-1.26,2.04-1.5,1.02-.79,1-.8,.9-.79,.9-.8,1.14-1.06,1.07-1.07,.67-.72,.64-.72,.53-.63,.49-.62,.6-.83,.58-.9,.49-.9,.22-.45,.17-.43,.18-.55,.13-.52,.04-.31v-.84l-.09-.33-.14-.31-.19-.26-.26-.25-.32-.21-.37-.15-.3-.08-.32-.05h-1.24l-.51,.05-.85,.16-.9,.22-.9,.29-.83,.31-.9,.35-.79,.35-.8,.39-1.61,.83-1.6,.9-1.59,1-1.46,.98-1.48,.98-1.43,1.09-1.05,.83-1.03,.9-2.06,1.79-1.61,1.47-1.56,1.54-1.58,1.66-1.51,1.71-.77,.9-.74,.9-.65,.84-.62,.85-.85,1.26-.7,1.22-.65,1.15-.22,.1-.28,.14-.28,.13-.29,.13-.29,.13-.28,.14-.29,.13-.29,.14-.28,.13-.29,.13-.28,.13-.29,.13-.28,.13-.29,.14-.28,.13-.29,.14-.29,.13-.28,.13-.29,.13-.29,.13-.28,.13-.29,.13-.28,.14-.29,.13-.29,.14-.28,.13-.29,.14-.29,.13-.28,.14-.29,.13-.29,.13-.28,.13-.29,.13-.28,.13-.29,.13-.29,.13-.28,.13-.29,.13-.28,.13-.29,.13-.29,.13-.28,.13-.29,.13-.29,.13-.28,.13-.29,.13-.29,.13-.28,.13-.29,.13-.28,.13-.29,.13-.29,.13-.28,.13,1.6-2.12,1.6-2.16,1.91-2.61,1.89-2.69,3.5-4.89,2.58-3.77,2.53-3.86,2.56-3.84,2.55-3.89h-2.95l-2,2.23-2.01,2.2-2.63,2.72-2.61,2.69-2.42,2.44-2.45,2.39-2.56,2.48-2.63,2.37-1.33,1.15-1.33,1.12-1.72,1.39-2.17,1.68-1.09,.8-1.09,.77-1.22,.83-1.2,.77-.9,.56-.9,.52-1.18,.62-1.14,.54-1.08,.43-.62,.2-.57,.15-.51,.09h-.93l-.4-.08-.16-.08-.16-.09-.17-.14-.13-.13-.09-.21-.06-.31v-.39l.05-.39,.08-.31,.1-.33,.15-.39,.19-.4,.27-.52,.31-.55,.66-1.01,.49-.69,.54-.7,.66-.81,.7-.81,1.14-1.26,1.22-1.27,1.27-1.25,1-.9,1.02-.9,1.2-1.03,1.23-1.03,2.02-1.62,2.1-1.55,2.15-1.5,1.79-1.18,1.88-1.16,1.91-1.08,1.97-1.02,1.99-.94,1.04-.45,1.05-.42,1.01-.39,1.02-.35,.13-.15,.21-.23,.22-.23,.22-.23,.22-.23,.22-.22,.22-.22,.22-.22,.22-.22,.22-.22,.23-.22,.22-.22,.23-.21,.23-.22,.23-.22,.23-.21-.31,.05-.31,.04-.31,.05-.31,.04-.31,.04-.31,.05-.31,.05-.31,.04-.31,.05h-.31l-.31,.05-.31,.05-.31,.04-.31,.05-.31,.04-.31,.05-.31,.05-.31,.04-.31,.05-.31,.04-.31,.05-.31,.05-.31,.04-.31,.05-.31,.05-.31,.04-.31,.05-.31,.05-.31,.05-.31,.04-.31,.05-.31,.05-.31,.05h-.3l-.31,.05-.31,.05-.31,.05-.31,.05-.31,.04-.31,.05-.31,.05-.31,.05-.31,.05-.31,.05h-.31l-.31,.05-.31,.05-.31,.05-.31,.05-.31,.05-.31,.05-.31,.05-.31,.05-.31,.05-.31,.05-.31,.05-.31,.05-.31,.05-.3,.05-.31,.05-.31,.05-.31,.05-.31,.04-.31,.06-.31,.05-.31,.05-.31,.05-.31,.05-.31,.05-.33,.2-.31,.05-.31,.05-.31,.06-.31,.05-.31,.05-.31,.05-.31,.05-.3,.05-.31,.05-.31,.06-.31,.05-.31,.05-.31,.06-.31,.05-.31,.05-.31,.05-.31,.05-.31,.06-.31,.04-.31,.06-.31,.06-.31,.05-.31,.05-.31,.05-.31,.06-.31,.05-.31,.06-.31,.05-.31,.05-.31,.05-.31,.06-.28,.05-.31,.06-.31,.05-.31,.05-.31,.06-.31,.05-.31,.06-.31,.05-.31,.05-.31,.06h-.14l1.03-1.42,1.01-1.44,1.3-1.94,1.24-1.95,1.16-1.96,.67-1.22,.63-1.21,.7-1.47,.63-1.47,.55-1.47,.22-.73,.22-.73,.19-.78,.14-.77,.14-1,.06-.98v-.9l-.12-.9-.08-.44-.13-.42-.23-.67-.27-.57-.31-.52-.33-.44-.36-.41-.4-.39-.32-.26-.34-.24-.73-.44-.79-.32-.53-.2-.54-.17-.56-.13-.57-.12-.59-.1-.59-.08-1.04-.1h-1.07l-1.23,.04-1.24,.11-1.27,.16-.96,.16-.96,.18-1.94,.44-1.94,.54-1.94,.63-1.79,.66-1.79,.72-1.97,.85-1.89,.9-2.05,1.03-2.05,1.1-1.33,.75-1.32,.78-1.33,.83-1.32,.84-2.59,1.7-2.55,1.79-2.51,1.93-2.39,1.92-2.32,1.97-2.29,2.04-2.24,2.09-1.96,1.9-1.92,1.96-1.83,1.98-1.4,1.51-1.38,1.53-2.28,2.62-2.4,2.82-2.32,2.87-5.77,1.44-2.86,.74-4.14,1.12-4.08,1.19-3.1,.97-3.48,1.16-1.79,.63-1.79,.66-1.6,.64-1.6,.65-2.17,.9-2.12,.98-1.31,.64-1.28,.66-1.26,.66-1.22,.7-1.62,.95-1.55,1.01-1.48,1.03-1.21,.9-1.16,.9-1.07,1.14-1.01,.99-.96,1.04-.9,1.07-.4,.55-.31,.55-.49,.82-.42,.81-.34,.78-.27,.77-.22,.9-.08,.45-.04,.45v.85l.06,.64,.12,.62,.18,.59,.25,.57,.34,.61,.4,.57,.48,.54,.56,.49,.38,.3,.36,.31,.43,.26,.44,.23,.95,.4,1.01,.35,1.07,.28,1.12,.21,.78,.1,.81,.07h3.11l1.58-.17,1.62-.24,1.64-.34,1.64-.43,1.45-.45,1.44-.51,1.45-.57,1.36-.6,1.37-.66,1.35-.7,1.01-.56,1-.58,.99-.6,.98-.64,1.92-1.33,1.87-1.42,1.84-1.5,1.63-1.44,1.61-1.49,1.63-1.55,1.33-1.39,1.36-1.5,1.96-2.23,1.92-2.29,1.22-1.5,2.4-3.02,3.89-4.97h.11l.31-.07,.31-.08,.31-.07,.31-.08,.31-.07,.31-.08,.3-.07,.31-.07,.31-.08,.31-.07,.31-.07,.31-.08,.31-.07,.31-.08,.31-.07,.31-.08,.31-.07,.31-.07,.31-.08,.31-.07,.31-.07,.31-.08,.31-.07,.31-.07,.31-.07,.31-.08,.3-.07,.31-.08,.31-.07,.31-.07,.31-.07,.31-.08,.31-.07,.31-.07,.31-.08,.31-.07,.31-.07,.31-.07,.31-.08,.31-.07,.31-.07,.31-.07,.31-.07,.3-.08,.31-.07,.31-.07,.31-.07,.31-.07,.31-.08,.31-.06,.31-.08,.31-.07,.31-.07,.31-.07,.31-.08,.31-.06,.3-.07,.31-.07,.31-.07,.31-.07,.31-.07,.31-.07,.31-.08,.31-.07,.31-.07,.31-.07,.31-.07,.31-.07,.31-.07,.31-.07,.31-.07,.31-.07,.31-.07,.31-.07,.31-.07,.31-.07,.31-.07,.31-.07,.31-.07,.31-.07,.31-.07,.31-.07,.31-.07,.31-.07,.31-.07,.31-.07,.31-.06,.31-.08,.31-.07,.31-.07,.31-.07,.3-.07,.31-.07,.31-.06,.31-.07,.31-.07,.31-.07,.31-.07,.31-.06,.31-.07,.3-.07,.31-.07,.31-.07,.31-.07,.31-.07,.31-.07,.31-.06,.31-.07,.31-.07,.31-.07,.31-.07,.31-.07,.31-.06,.31-.07,.31-.07,.31-.06,.31-.08,.31-.06,.31-.07,.31-.07,.31-.06,.31-.07,.31-.07,.31-.07,.31-.06,.31-.07,.31-.06,.31-.07,.31-.07,.31-.07,.31-.07,.31-.06,.31-.07,.31-.06,.31-.07,.31-.07,.31-.06,.31-.07,.31-.07,.31-.06,.31-.07,.31-.06,.31-.07,.31-.07,.31-.06,.31-.07,.31-.06,.31-.07,.31-.07,.31-.06-1.41,1.79-1.49,1.79-2.52,3.03-2.6,3.05-2.69,3.09-2.11,2.32-2.14,2.32-4.46,4.68-2.78,2.91-2.87,2.94-4.84,4.99-4.96,5.03-6.75,6.76-4.49,4.49-9.16,9.07,4.4-.71,5.23-4.79,6.55-6.06,6.47-6.07,6.36-6.08,3.1-3,3.05-3,4-3.95,3.88-3.93,3.79-3.91,2.21-2.42,2.29-2.42,2.06-2.25,2.03-2.23,2.69-3.1,2.6-3.07,2.47-3.02h.13l.31-.07,.31-.06,.31-.06,.31-.07,.31-.06,.31-.07,.31-.05,.31-.07,.31-.06,.31-.07,.31-.06,.31-.07,.31-.05,.31-.07,.31-.06,.31-.07,.31-.06,.31-.06,.31-.06,.31-.07,.31-.06,.31-.06,.31-.07,.31-.06,.31-.06,.31-.06,.31-.06,.31-.07,.3-.06,.31-.06,.31-.06,.31-.06,.31-.07,.31-.06,.31-.06,.31-.06,.31-.06,.31-.06,.31-.07,.31-.05,.31-.07,.31-.06,.31-.06,.31-.07,.31-.06,.31-.05,.31-.06,.31-.07,.31-.06,.31-.06,.31-.06,.31-.06,.31-.06,.31-.06,.31-.06,.31-.06,.31-.06,.31-.07,.31-.06,.31-.05,.31-.06,.31-.06,.31-.07,.31-.06,.31-.06,.3-.06-1.14,.68-1.11,.66-2.23,1.46-2.16,1.53-2.11,1.6-2.05,1.65-1.92,1.65-1.79,1.58-1.7,1.62-1.64,1.65-1.44,1.55-1.39,1.57-.9,1-.82,1.01-.74,.96-.72,.97-.82,1.27-.9,1.34-.77,1.34-.36,.66-.31,.66-.37,.82-.3,.81-.27,.9-.17,.9v1.33l.09,.48,.13,.41,.19,.39,.24,.33,.29,.3,.22,.17,.25,.14,.26,.13,.29,.11,.63,.16,.43,.05h1.54l.9-.12,.96-.2,.99-.25,.75-.23,.76-.26,.98-.38,1.01-.4,1.47-.68,1.48-.74,1.47-.8,1.3-.74,1.3-.8,1.79-1.18,1.79-1.26,1.79-1.31,1.58-1.18,2.26-1.79,2.23-1.88,2.19-1.95,2.15-2.01-.12,.14-.12,.15-.13,.15-.12,.15-.12,.15-.12,.15-.13,.15-.12,.15-.12,.15-.12,.15-.12,.14-.13,.15-.12,.14-.12,.15-.12,.15-.13,.14-.12,.15-.12,.14-.12,.15-.12,.14-.09,.15-.12,.14-.12,.15-.12,.14-.12,.14-.12,.15-.13,.14-.11,.15-.13,.13-.12,.14-.12,.15-.12,.13-.12,.15-.12,.14-.12,.14-.12,.14-.13,.14-.11,.14-.12,.14-.13,.13-.11,.14-.13,.14-.12,.13-.11,.14-.13,.13-.12,.14-.12,.14-.11,.13-.13,.14-.12,.13-.11,.13-.12,.14-.12,.13-.12,.13-.12,.14-.12,.14-.12,.13-.12,.13-.16,.13-.12,.13-.12,.13-.12,.13-.11,.13-.12,.14-.12,.13-.12,.13-.12,.13-.12,.13-.12,.13-.11,.13-.12,.13-.12,.13-.12,.13-.12,.13-.11,.13-.12,.13-.12,.13-.12,.13-.12,.13-.11,.13-8.15,3.89-4.17,2.03-4.11,2.05-2.55,1.28-2.51,1.31-2.54,1.36-3.15,1.79-1.53,.9-1.52,.9-1.59,1-1.54,1.01-1.56,1.09-1.51,1.04-1.38,1.12-.82,.72-.74,.73-.77,.83-.67,.83-.3,.42-.26,.4-.31,.56-.24,.55-.17,.55-.09,.53v.5l.07,.48,.15,.45,.22,.41,.31,.38,.37,.33,.44,.29,.59,.28,.66,.22,.72,.17,.76,.11h2.59l.69-.08,.7-.1,.75-.13,.76-.17,1.5-.4,1.52-.49,1.53-.58,1.53-.66,1.07-.51,1.06-.55,1.4-.77,1.38-.83,1.37-.9,1.03-.68,1.01-.72,1.98-1.46,1.97-1.59,1.94-1.66,1.37-1.24,1.36-1.27,1.25-1.21,1.25-1.24,1.27-1.32,1.27-1.34,2.44-2.69,2.39-2.75,2.34-2.84h.1l.28-.14,.29-.14,.28-.13,.29-.13,.28-.14,.28-.13,.29-.13,.28-.14,.29-.13,.28-.14,.29-.13,.28-.13,.29-.14,.28-.13,.28-.13,.29-.14,.28-.13,.29-.13,.29-.13,.28-.14,.28-.13,.29-.14,.29-.13,.28-.13,.28-.14,.29-.13,.29-.13,.28-.14,.29-.13,.24-.19,.29-.13,.28-.14,.29-.13,.28-.13,.28-.14,.29-.13,.28-.13,.29-.14,.29-.13,.28-.13,.28-.13,.29-.14,.29-.13,.28-.13,.29-.13,.28-.13,.29-.14,.28-.14,.28-.13,.29-.14,.29-.13,.28-.13,.29-.13,.28-.14,.29-.13,.28-.13,.29-.13,.29-.13,.28-.14,.28-.13,.29-.13,.29-.13,.28-.14-.13,.84v1.21l.05,.36,.12,.48,.18,.45,.22,.38,.27,.34,.32,.3,.38,.26,.28,.14,.3,.13,.64,.19,.45,.09,.48,.05h1.58l.84-.1,.76-.13,.78-.17,.9-.24,.96-.29,1.49-.5,1.49-.58,1.49-.65,1.43-.66,2.02-.98,1.95-1.04,1.95-1.09,1.44-.85,1.44-.9,2.84-1.79,1.91-1.28,1.91-1.33,1.66-1.18,1.65-1.21,1.79-1.3,1.72-1.34,3.32-2.64,3.28-2.69,3.21-2.79-2.69,3.7-2.85,3.65-2.62,3.39-2.69,3.38-3.14,3.9-3.17,3.89,6.12-.9,4.19-3.8,4.06-3.67,3.54-3.11,1.79-1.55,2.62-2.26,1.93-1.63,1.92-1.58,2.19-1.7,2.21-1.63,1.1-.78,1.12-.74,1.54-.97,1.55-.9,1.43-.76,1.44-.7,1.45-.64,1.48-.57,.98-.38,.99-.32,1.06-.31,1.07-.29-1.29,1.04-1.26,1.09-1.2,1.13-1.25,1.26-1.19,1.31-1.05,1.26-.9,1.25-.9,1.27-.9,1.3-.69,1.16-.62,1.16-.48,1.05-.47,1.01-.43,1.19-.31,1.14-.13,.57-.09,.56-.06,.7v1.44l.1,.48,.14,.45,.2,.42,.25,.41,.3,.36,.49,.36,.44,.25,.48,.19,.52,.13,.42,.04h1.12l.71-.12,.73-.17,.63-.19,.65-.23,.74-.31,.75-.35,.67-.35,.67-.38,1.33-.82,1.31-.9,1.29-.97,1-.8,1-.9,1.06-.95,1.04-.99,1.62-1.63,1.56-1.7,1.52-1.79,1.47-1.79-.7,1.79-.66,1.72-.6,1.69-.32,1-.38,1.29-.14,.63-.13,.6-.09,.58-.04,.55v.5l.05,.46,.11,.45,.19,.38,.25,.33,.26,.22,.32,.18,.36,.14,.41,.09,.46,.05h1.44l.64-.08,.9-.14,1.53-.32,1.59-.4,1.63-.47,1.68-.5,1.72-.55,3.47-1.16,5.39-1.86,3.67-1.3,7.41-2.69,.18-.17,.97-.84,1.06-.83,2.52-1.75-10.6,3.22Zm-101.08,7.3l.64-.76,1.34-1.5,1.39-1.45,1.64-1.55,1.7-1.55,1.73-1.49,1.79-1.41,1.18-.9,1.17-.84,.77-.53,1.22-.79,1.2-.7,.58-.31,.56-.26,.48-.21,.45-.16,.54-.14h.41l.16,.04,.13,.07,.09,.12v.47l-.14,.35-.18,.31-.22,.33-.3,.4-.35,.42-.49,.55-.54,.55-1.2,1.12-.98,.85-1.03,.83-1.07,.83-1.11,.82-1.14,.82-1.16,.78-1.18,.78-1.2,.75-2.43,1.4-2.5,1.4-2.52,1.33,.58-.77Zm-111.11,8.97l-1.39,1.7-1.03,1.2-1.06,1.18-1.71,1.84-1.79,1.79-1.85,1.7-1.7,1.46-1.79,1.4-1.79,1.33-1.86,1.25-1.88,1.15-1.13,.65-1.13,.6-1.62,.81-1.67,.74-1.67,.65-1.67,.55-.83,.23-.82,.21-.9,.2-.9,.15-.76,.11-.74,.07h-2.29l-.68-.1-.63-.16-.57-.22-.37-.18-.32-.22-.38-.33-.15-.19-.13-.2-.16-.33-.1-.35v-.83l.1-.48,.16-.48,.15-.36,.19-.36,.24-.39,.28-.41,.36-.47,.39-.47,.76-.79,.9-.79,.9-.76,.69-.53,.73-.52,.83-.57,.9-.57,1.12-.66,1.15-.66,1.79-.95,1.79-.9,1.88-.9,1.7-.73,1.72-.69,1.79-.66,1.79-.64,2.69-.9,2.74-.9,3.71-1.09,2.49-.7,4.89-1.23-1.36,1.68ZM119.28,17.52l-.11,.99-.17,.9-.22,.9-.22,.7-.24,.69-.54,1.37-.65,1.4-.66,1.3-.58,1.05-.6,1.05-.72,1.17-.74,1.17-1.48,2.19-.31,.05-.31,.06-.31,.06-.31,.06-.31,.06-.31,.05-.31,.06-.31,.06-.31,.06-.31,.05-.31,.06-.31,.06-.3,.06-.31,.05-.31,.07-.31,.05-.31,.06-.31,.06-.31,.06-.31,.06-.31,.06-.31,.06-.31,.06-.31,.05-.31,.06-.32,.03-.31,.06-.31,.06-.31,.06-.31,.06-.31,.06-.31,.06-.31,.06-.31,.06-.31,.06-.31,.06-.31,.06-.31,.06-.31,.06-.31,.06-.31,.06-.31,.06-.31,.07-.31,.05-.31,.06-.31,.07-.31,.06-.31,.06-.31,.06-.31,.06-.31,.06-.31,.06-.31,.07-.31,.06-.31,.06-.31,.06-.3,.06-.31,.07-.31,.06-.31,.06-.31,.06-.31,.06-.31,.07-.31,.06-.31,.06-.31,.07-.31,.06-.31,.06-.31,.06-.31,.07-.31,.06-.31,.06-.31,.07-.31,.06-.31,.07-.31,.06-.31,.06-.31,.06-.31,.07-.31,.06-.31,.07-.31,.06-.31,.06-.31,.07-.31,.06-.31,.07-.31,.07-.31,.06-.31,.06-.31,.07-.31,.06-.31,.07-.3,.07-.31,.13-.31,.07-.31,.06-.31,.07-.31,.06-.31,.07-.3,.07-.31,.06-.31,.06-.31,.07-.31,.07-.31,.07-.31,.06-.31,.07-.31,.06-.31,.07-.31,.07-.31,.06-.31,.07-.31,.07-.31,.06-.31,.07-.31,.07-.31,.07-.31,.06-.31,.07-.31,.07-.31,.07-.31,.07-.31,.06-.31,.07-.31,.07-.31,.07-.31,.07-.31,.06-.31,.07-.31,.07-.31,.07-.31,.07-.31,.07h-.33l-.3,.06-.31,.07-.31,.07-.31,.07-.31,.07-.31,.07-.31,.07-.31,.07-.3,.07-.31,.07-.31,.06,2.42-2.8,2.49-2.69,2.54-2.69,1.3-1.31,1.35-1.33,1.27-1.22,1.3-1.2,1.96-1.79,1.99-1.7,2-1.62,1.44-1.12,1.5-1.05,1.4-1.01,1.43-.97,1.79-1.14,1.79-1.09,1.79-1.02,1.27-.66,1.27-.64,1.73-.8,1.74-.71,1.79-.64,.9-.28,.9-.26,.84-.22,.84-.18,.9-.16,.9-.12,1.09-.11h1.07l1.05,.04,.5,.06,.48,.08,.54,.13,.51,.14,.67,.27,.61,.33,.56,.4,.25,.22,.24,.25,.21,.25,.2,.28,.32,.57,.24,.63,.17,.67,.06,.45v.93l-.13,.4Zm5.22,50.03l-2.46,2.34-1.25,1.14-1.27,1.11-1.46,1.28-1.46,1.2-1.45,1.15-1.46,1.09-1.7,1.19-1.7,1.11-1.7,1.01-1.07,.58-1.03,.52-1.05,.48-1.01,.4-.96,.31-.57,.14-.52,.11h-1.3l-.22-.09-.13-.15-.12-.14-.05-.17v-.53l.18-.38,.22-.34,.28-.36,.43-.47,.49-.49,.57-.49,.61-.5,1.32-1.01,1.04-.72,1.09-.73,1.39-.9,1.45-.9,1.48-.9,1.51-.9,3.37-1.75,3.45-1.88,3.72-1.89,3.76-1.9-2.43,2.4Z" style="fill: #010101;"/>
    <path d="M272.61,81.5s54.51-14.09,73.26-24.86c12.02-6.99,5.75-9.64-2.19-9.57l-25.34-.07c-5.86-.18-10.72-.54-1.23-5.22,8.77-4.49,31.63-13.94,31.63-13.94,1.53-1.62,3.18-3.12,4.94-4.49,0,0-38.2,11.61-54.09,21.54-6.28,3.72-5.01,8.66,6.36,8.45h24.86c3.37,.37,4.82,1.38,.4,3.72-11.22,5.88-21.9,9.87-50.66,18.44,0-.04-2.23,2.58-7.94,6.01Z" style="fill: #e20613;"/>
    <path d="M309.02,23.52c-.41,.05-1.64,.22-1.64,.22l-1.68,.28-1.54,.3-1.55,.32-1.91,.43-1.92,.46-3.72,.97-3.68,1.02-3.59,1.08-4.9,1.52-6.34,5.07,.14-.04,.3-.08,.3-.09,.31-.08,.3-.09,.31-.08,.3-.09,.3-.08,.31-.08,.3-.09,.3-.08,.31-.08,.31-.09,.3-.08,.3-.08,.31-.09,.31-.08,.3-.08,.3-.08,.31-.08,.3-.08,.31-.09,.31-.08,.3-.08,.31-.08,.31-.08,.31-.08,.3-.09,.31-.08,.31-.07,.3-.09,.31-.08,.31-.08,3.91-1.01,2.03-.49,2.69-.6,1.28-.25,1.09-.19,1.26-.17,.62-.05h.85l.39,.05,.2,.05h.1l.13,.08,.09,.1,.05,.1v.24l-.12,.24-.11,.16-.23,.29-.27,.27-.29,.27-.43,.35-.9,.7-.8,.56-1.59,1.09-1,.63-.22,.13-.27,.17-.27,.16-.26,.17-.28,.16-.26,.16-.28,.16-.27,.16-.26,.16-.27,.16-.27,.16-.27,.16-.28,.16-.27,.15-.27,.16-.28,.15-.27,.16-.27,.16-.27,.15-.28,.16-.27,.15-3.78,2.14-3.86,2.14-3.81,2.08-7.63,4.12-5.2,2.76-10.26,5.38,8.47-14.54-.26,.1-.3,.11-.3,.11-.29,.11-.28,.16-.3,.11-.3,.11-.3,.1-.29,.11-.31,.11-.3,.1-.3,.11-.3,.1-.31,.06-.3,.1-.3,.1-.3,.1-.3,.1-.3,.11-.3,.1-.3,.1-.3,.1-.31,.1-.3,.1-.3,.1-.31,.1-.3,.09-.3,.1-.3,.1-.3,.1-.3,.09-.31,.13-.3,.09-.3,.1-.3,.09-17.05,29.21,9.55-2.07,4.81-8.26s16.68,.64,52.17-2.69l6.35-4.35-4.84,.39-4.88,.37-4.65,.31-4.67,.28-4.77,.25-4.71,.19h-19.48l.18-.09,.18-.09,.19-.09,.18-.09,.18-.09,.19-.09,.18-.09,.18-.09,.18-.09,.18-.09,.19-.09,.18-.09,.18-.09,.18-.09,.18-.09,.18-.09,.18-.08,.18-.09,.18-.09,.18-.09,.18-.09,.18-.09,.17-.09,.18-.09,.18-.08,.18-.09,.18-.09,.17-.09,.18-.08,.18-.09,.17-.09,.17-.09,.18-.08,.18-.1,.17-.08,.17-.09,.18-.09,.17-.08,.17-.09,.18-.09,.17-.08,.17-.09,.17-.09,.18-.08,.17-.09,.17-.09,.17-.09,.17-.08,.17-.09,.17-.08,.17-.09,.17-.08,.17-.09,.17-.08,.16-.09,.18-.09,.16-.08,.17-.09,.17-.08,.16-.08,.17-.09,.17-.08,.16-.09,.17-.09,.17-.08,.16-.08,.16-.09,.17-.08,.16-.08,.16-.09,.17-.08,.16-.08,.16-.09,.17-.09,.16-.08,.16-.08,.17-.09,.15-.07,.16-.09,.17-.08,.16-.09,.15-.08,.17-.08,.16-.08,.15-.09,.17-.08,.15-.08,.16-.08,.16-.08,.16-.09,.15-.08,.16-.08,.15-.09,.16-.07,.16-.09,.15-.08,.16-.07,.16-.09,.15-.07,.15-.09,.15-.08,.16-.08,.16-.08,.15-.08,.15-.08,.15-.08,.15-.08,.15-.08,.16-.08,.15-.08,.15-.08,.15-.08,.15-.08,.15-.08,.15-.08,.15-.08,.15-.08,.14-.08,.15-.08,.15-.08,.15-.07,.15-.08,.15-.08,.14-.08,.15-.07,.14-.08,.15-.08,.14-.08,.15-.08,.14-.07,.15-.09,.14-.07,.15-.08,.14-.07,.14-.08,.15-.08,.14-.08,.14-.07,.14-.08,.14-.08,.14-.07,.14-.08,.15-.08,.14-.07,.13-.08,.15-.07,.14-.08,.13-.08,.14-.07,.14-.08,.14-.07,.13-.08,.14-.07,.14-.08,.14-.07,.14-.08,.13-.07,.14-.08,.14-.07,.13-.08,.14-.07,.14-.07,.14-.08,.13-.07,.14-.07,.13-.08,.14-.07,.14-.08,.13-.07,.13-.08,.13-.06,.14-.08,.13-.07,.13-.08,.14-.06,.14-.08,.13-.07,.13-.07,.13-.08,.13-.07,.16-.09,.17-.1,.16-.09,.17-.09,.16-.1,.17-.09,.16-.09,.16-.09,.16-.09,.17-.09,.16-.1,.16-.09,.16-.09,.16-.09,.16-.09,.15-.09,.16-.09,.15-.09,.17-.09,.15-.09,.16-.09,.15-.09,.15-.09,.16-.09,.15-.09,.15-.09,.16-.09,.15-.08,.15-.09,.15-.09,.15-.09,.15-.09,.15-.08,.15-.09,.14-.09,.16-.08,.14-.09,.15-.09,.14-.08,.15-.09,.14-.09,.14-.08,.15-.08,.14-.09,.14-.09,.15-.08,.13-.08,.15-.09,.14-.08,.15-.09,.13-.08,.14-.09,.14-.08,.14-.08,.14-.09,.14-.08,.13-.08,.14-.08,.14-.09,.13-.08,.14-.08,.14-.08,.13-.08,.13-.09,.14-.08,.13-.08,.13-.08,.14-.08,.13-.08,.13-.08,.14-.08,.13-.08,.13-.08,.13-.07,.13-.08,.13-.08,.13-.08,.13-.08,.13-.08,.13-.08,.13-.08,.13-.07,.13-.08,.13-.08,.13-.07,.13-.08,.13-.08,.12-.08,.13-.07,.13-.08,.12-.07,.13-.08,.12-.08,.13-.07,.12-.07,.13-.08,.12-.07,.14-.09,.14-.09,.14-.09,.14-.09,.14-.09,.13-.09,.13-.08,.14-.09,.13-.09,.13-.09,.13-.08,.13-.09,.13-.09,.13-.09,.13-.08,.13-.08,.13-.09,.13-.09,.13-.08,.13-.09,.13-.08,.14-.08,.12-.09,.12-.08,.13-.08,.13-.08,.12-.09,.13-.07,.12-.09,.12-.08,.12-.08,.12-.08,.12-.08,.12-.08,.12-.08,.12-.08,.12-.08,.11-.08,.11-.07,.11-.08,.12-.08,.11-.08,.11-.07,.11-.08,.11-.08,.11-.08,.11-.07,.1-.07,.11-.08,.41-.36,.1-.07,.1-.08,.1-.07,.1-.07,.1-.08,.1-.06,1.11-.9,.64-.53,.83-.75,.56-.5,.53-.53,.51-.54,.48-.55,.33-.43,.29-.43s.28-.44,.3-.63c.22-1.87-2.66-2.82-7.18-2.33Z" style="fill: #e20613;"/>
  </g>
</svg>