<?xml version="1.0" encoding="UTF-8" standalone="no"?>
<svg
   width="1000"
   height="344.85001"
   viewBox="0 0 1000 344.85003"
   version="1.1"
   id="svg196"
   sodipodi:docname="Agera_Logowh_0.svg"
   inkscape:version="1.2.2 (732a01da63, 2022-12-09)"
   xmlns:inkscape="http://www.inkscape.org/namespaces/inkscape"
   xmlns:sodipodi="http://sodipodi.sourceforge.net/DTD/sodipodi-0.dtd"
   xmlns="http://www.w3.org/2000/svg"
   xmlns:svg="http://www.w3.org/2000/svg">
  <defs
     id="defs200" />
  <sodipodi:namedview
     id="namedview198"
     pagecolor="#ffffff"
     bordercolor="#000000"
     borderopacity="0.25"
     inkscape:showpageshadow="2"
     inkscape:pageopacity="0.0"
     inkscape:pagecheckerboard="0"
     inkscape:deskcolor="#d1d1d1"
     showgrid="false"
     inkscape:zoom="0.30564788"
     inkscape:cx="754.13577"
     inkscape:cy="137.41302"
     inkscape:window-width="1920"
     inkscape:window-height="1017"
     inkscape:window-x="-8"
     inkscape:window-y="-8"
     inkscape:window-maximized="1"
     inkscape:current-layer="svg196" />
  <path
     d="m 999.9888,110.02838 0.0112,-0.009 -0.0187,-0.0387 -39.04857,12.19738 -26.42078,8.11287 -10.41461,3.14011 -2.11087,0.61629 -12.05016,3.48318 -3.30728,0.89824 -9.93804,2.54751 -6.28271,1.26004 -2.03726,0.33559 -4.38017,0.45287 -3.41458,-0.12477 h -0.009 l -2.12084,-0.57761 -0.25824,-0.10604 -1.38479,-0.90448 -0.0561,-0.0424 -0.64124,-0.77723 -0.13848,-0.26947 -0.34433,-0.74854 -0.0125,-0.0412 -0.257,-1.09661 -0.0836,-0.73981 -0.0586,-0.57262 v -0.0624 l 0.13224,-2.04349 0.0349,-0.28694 0.3044,-1.95867 0.1098,-0.56015 1.11531,-4.22923 0.23703,-0.79594 1.52701,-4.58353 0.29193,-0.82214 3.98221,-10.598 4.60099,-11.602292 17.09154,-42.756306 0.01,-0.02744 h -0.0299 v -0.03368 l -1.15774,-0.07236 -1.15898,-0.04866 -4.67709,-0.09606 h -2.31422 l -1.18394,0.02495 -0.74854,0.02245 v 0.02495 h -0.0175 l -7.17345,10.861239 -0.99056,1.449663 -9.45151,13.432456 -1.90502,2.559989 -8.7067,11.364006 -0.12476,0.152202 -0.39547,0.481557 -8.28254,9.899376 -1.68171,1.95243 -7.9981,8.70795 -0.85457,0.88702 -7.43919,7.26578 -0.78721,0.76599 -6.32761,5.45308 -1.30495,1.05543 -5.69136,4.22049 -0.21957,0.14347 -5.13121,3.11889 -3.8063,1.72788 -0.71984,0.26822 -2.65479,0.74854 -0.55891,0.0823 -2.17949,0.0624 -1.76653,-0.49903 -0.0923,-0.0437 -0.54519,-0.35306 -0.13848,-0.10355 -0.16967,-0.15968 -0.44787,-0.4828 -0.007,-0.0112 -0.43665,-0.70612 -0.13973,-0.26448 -0.2782,-0.78098 -0.0611,-0.2495 -0.16217,-0.91697 -0.0599,-0.57137 -0.0237,-0.76601 0.0424,-1.10284 0.0724,-0.78222 0.257,-1.62182 0.0586,-0.28569 0.46534,-1.81894 0.60756,-1.92997 v -0.0474 l 0.88328,-2.30674 0.52771,-1.24755 0.67743,-1.49707 0.69863,-1.47087 0.74853,-1.42596 0.7947,-1.49707 1.64553,-2.81698 0.60756,-1.00929 1.37232,-2.12084 0.88326,-1.33987 5.00021,-6.68068 0.52149,-0.62378 5.31958,-6.034439 0.24951,-0.271968 v 0.0075 l 6.1829,-5.950852 0.38924,-0.350564 6.02071,-4.916626 0.93817,-0.696137 5.58906,-3.83125 0.87328,-0.566391 6.58836,-3.689029 6.89151,-3.059012 6.894,-2.322953 0.0486,-0.01622 v 0 l 0.007,-0.0075 v 0 l 0.72233,-0.893251 0.70612,-0.8945 0.11353,-0.142221 1.54448,-1.97738 1.49706,-1.976131 0.30691,-0.419179 0.1023,-0.134737 0.20834,-0.290681 0.0698,-0.09606 v 0 l 0.55143,-0.766001 0.54268,-0.731069 0.67868,-0.939411 1.35111,-1.929972 0.0711,-0.106043 1.18144,-1.701669 0.92194,-1.417226 0.42667,-0.632512 0.62378,-0.96561 0.0424,-0.08733 v -0.0075 l 0.0225,-0.03742 -6.69689,0.581362 v 0 h -0.0399 v 0 l -1.81021,0.200857 -4.09823,0.374268 -6.21907,0.698632 -6.17292,0.772238 -6.09681,0.915708 -6.00575,0.989314 -6.88901,1.344867 -3.72646,0.852081 -1.0205,0.20959 v 0 l -0.73856,0.19961 -1.26252,0.288186 -6.34134,1.711649 -1.1228,0.346821 -1.27127,0.341831 v 0 l -0.0299,0.01 h -0.01 -0.0125 v 0 l -1.56943,0.537698 -2.22938,0.688652 -6.09931,2.144552 -1.68047,0.677424 -3.33471,1.323659 -0.0187,0.0075 v 0.01 l -0.24202,0.106042 -0.70986,0.285691 -1.76155,0.800933 -2.07095,0.910717 -0.99805,0.482805 -0.69114,0.314384 -1.4584,0.729821 -1.72287,0.835864 -0.0112,-0.03368 -2.1458,1.136524 -0.0624,0.03119 -0.0748,0.04242 -2.64358,1.39976 -5.20731,3.014099 -3.33472,2.080927 -0.0362,0.02121 -0.0187,0.01247 -1.67297,1.040464 v 0 l -0.0823,0.05489 v 0 l -0.0262,0.01746 v 0 l -5.93214,3.985948 -5.90469,4.219241 -0.0249,0.01871 v 0.03243 l -1.69294,1.283737 -1.16148,0.860815 -1.8364,1.40974 -2.72092,2.062213 -6.15546,4.94159 -1.38853,1.11032 -7.27575,6.09682 -7.95443,6.82164 -5.27967,4.65339 -10.48822,9.2731 4.59101,-6.35256 4.2417,-6.0544 2.81449,-3.94977 1.30121,-1.91625 1.78525,-2.54377 4.94033,-7.25455 3.7252,-5.586569 0.81341,-1.198903 v 0 l 0.0349,-0.05365 0.007,-0.01247 v 0 l 0.32686,-0.513993 6.25277,-9.730953 2.52505,-4.10197 1.06791,-1.682955 v 0 l 0.61131,-1.044207 1.84887,-3.004119 5.66392,-9.835747 0.0162,-0.02994 -0.11103,-0.0087 -1.07789,-0.08983 -0.22082,-0.01372 -0.43165,-0.03493 -0.80841,-0.04241 -0.85833,-0.05365 -0.67618,-0.02744 -0.383,-0.02121 -0.31563,-0.0075 -0.96186,-0.03992 h -0.13973 l -0.41419,-0.02121 -0.89201,-0.0237 h -0.0212 l -0.7922,-0.01996 h -0.0786 -0.93192 l -0.9182,-0.02495 h -1.81395 l -0.73482,0.01996 h -0.24951 -1.7603 l -0.0112,0.0087 v 0 l -5.67764,4.763175 -19.82369,16.360476 -1.74659,1.413482 -22.2215,17.477043 -0.0125,0.009 v 0 l -20.11562,15.0418 -1.90003,1.38978 -18.13327,12.78498 -1.28248,0.88327 -15.99868,10.62046 -1.6393,1.04919 -13.98263,8.59068 -0.33683,0.20211 -0.19587,0.11229 -12.50677,6.9988 -9.43778,4.74071 -1.57691,0.73606 -7.38679,3.12639 -0.36055,0.14097 -6.39872,2.14829 -4.32902,0.96062 -0.95439,0.15096 -3.13885,0.20834 -0.27571,-0.0237 -2.23063,-0.3331 -0.2071,-0.0499 -1.68545,-0.80967 -0.65872,-0.57762 -0.57386,-0.79594 -0.18839,-0.46285 -0.2021,-0.56764 -0.18589,-0.8895 v -1.41599 l 0.20211,-1.43469 0.0125,-0.0699 0.88577,-0.43664 10.96228,-5.3907 v 0 l 0.0275,-0.0137 0.009,0.0387 0.0224,-0.0549 0.38799,-0.20211 0.76102,-0.37426 6.5821,-3.36841 4.27289,-2.29302 3.52934,-1.8364 v 0 l 0.0312,-0.0187 v 0 h 0.0112 v 0 l 1.5345,-0.88078 0.45786,-0.2495 7.90452,-4.48373 2.89683,-1.73785 0.96186,-0.55267 0.77349,-0.48904 3.20248,-1.92124 6.96762,-4.46127 1.05542,-0.71235 0.49903,-0.31563 v 0 l 0.0175,-0.0125 0.0225,-0.015 v 0 l 0.7348,-0.51773 4.56482,-3.08272 5.14243,-3.75389 0.72983,-0.51275 v 0 l 0.0399,-0.0299 v 0 0 l 0.37427,-0.29566 1.30245,-0.95064 3.75888,-2.94174 3.71274,-2.9642 0.15095,-0.12476 0.62378,-0.49029 v 0 l 0.0337,-0.0299 h 0.009 0.007 v 0 l 0.88078,-0.77722 1.76528,-1.4821 3.3497,-2.96545 1.50705,-1.39477 1.0966,-0.96685 0.61131,-0.6138 1.00553,-0.93068 3.97846,-3.97722 1.38479,-1.48084 0.17216,-0.17216 v 0 l 0.0299,-0.0362 v 0 -0.009 l 0.15095,-0.17341 0.73231,-0.78346 2.37036,-2.67477 1.95119,-2.31671 0.38175,-0.48156 0.0936,-0.10729 v 0 l 0.0274,-0.0387 v 0 l 0.006,-0.007 v 0 l 0.11852,-0.16218 1.2251,-1.53574 2.24561,-3.086462 0.56264,-0.873291 0.16967,-0.232046 v 0.01497 l 0.34432,-0.580115 1.06791,-1.658004 1.19766,-2.160771 0.46908,-0.790951 v -0.04866 l 0.0125,-0.02744 0.17965,-0.324365 0.77473,-1.640539 0.64998,-1.591884 0.13972,-0.419179 0.12476,-0.280701 v 0 l 0.11478,-0.444131 0.29442,-0.883271 0.4566,-1.929972 0.0287,-0.193371 0.0449,-0.169668 0.009,-0.187134 0.0873,-0.585104 0.0474,-1.085376 V 81.47947 l -0.007,-0.03493 -0.11228,-0.954382 -0.31563,-1.232587 -0.0374,-0.07735 -0.007,-0.03992 -0.0574,-0.09606 -0.42791,-0.899489 -0.67992,-0.990561 -0.44412,-0.422923 -0.32562,-0.349316 -0.14472,-0.09856 -0.0773,-0.07361 -0.41918,-0.265729 -0.34058,-0.232047 v 0 h -0.01 l -0.0349,-0.0237 v 0 l -0.1048,-0.05364 -0.27197,-0.172163 -0.37426,-0.157192 -0.44538,-0.227056 -0.38924,-0.124755 -0.16967,-0.07111 -0.31314,-0.08234 -0.49902,-0.159687 -0.0287,-0.0075 v 0.0087 l -0.23329,-0.04116 -0.0299,-0.0075 -1.18392,-0.217075 -0.12477,-0.01123 -0.20959,-0.03742 -0.65122,-0.03992 -0.36429,-0.03243 -0.3518,-0.01123 -0.58885,-0.03742 -0.2021,0.01 -0.3069,-0.01 -1.78401,0.09731 -1.90752,0.240779 -0.0998,0.01746 -0.62379,0.0761 v 0 h -0.0249 -0.0349 v 0 l -1.23758,0.249512 -1.15149,0.202104 -0.54768,0.14347 -0.22207,0.04491 v 0 l -0.0262,0.0062 h -0.0187 v 0 l -1.48834,0.402961 -1.02549,0.266978 -0.22083,0.06862 -0.54892,0.148458 -1.30744,0.435399 -1.29871,0.409199 -0.57512,0.215827 -0.69864,0.232046 v 0 l -0.0362,0.01497 h -0.006 v 0 l -1.34737,0.536451 -0.42042,0.157192 -3.18502,1.278746 -2.89059,1.312432 -0.4092,0.198362 -0.31313,0.138478 -1.58565,0.780972 -0.68242,0.330603 -0.19462,0.102299 -2.18946,1.07789 -2.93051,1.594379 -0.64124,0.334346 -0.41669,0.239531 -1.19765,0.652473 -2.13333,1.271261 -2.18198,1.260034 -5.88223,3.71398 -0.16967,0.113528 -0.24079,0.150954 -2.27928,1.536992 -2.71219,1.816443 -0.29567,0.210838 -0.18713,0.124756 -1.28499,0.923192 -3.61168,2.572465 -0.45287,0.345572 -0.26447,0.18963 v 0 l -5.57285,4.26415 -1.07914,0.87329 -1.81394,1.42221 -2.05723,1.69419 -0.5901,0.47657 v 0 l -0.0175,0.0162 -0.01,0.007 -0.01,0.009 v 0 l -0.44163,0.37427 -0.70487,0.58012 -0.82714,0.71984 -3.44076,2.91928 -1.47212,1.3536 -1.85387,1.61185 -6.00324,5.5691 -0.49279,0.48904 -0.5115,0.47033 v 0 l -1.34986,1.3798 -3.43203,3.40333 -4.0895,4.29036 -0.51773,0.53021 v 0 l -0.0412,0.0474 v 0 l -0.007,0.009 v 0 l -0.15344,0.17466 -1.04422,1.09661 -5.56785,6.33883 -1.18517,1.43719 -0.22706,0.25824 v 0 l -0.35306,0.45038 -1.07789,1.30869 -2.77332,3.47069 -2.38783,3.13263 -2.29301,3.16006 -3.15632,4.65215 -2.60365,4.24169 -2.38409,4.2417 -0.0237,0.0399 -0.78846,0.35805 -2.07469,1.01302 -0.54268,0.25824 v -0.01 l -1.16023,0.5639 -0.41918,0.19961 -1.03548,0.5065 -0.85582,0.4092 v -0.0175 l -3.51063,1.68171 -1.85013,0.892 -0.10355,0.0474 -0.46283,0.22456 -1.02675,0.49903 -6.87529,3.2948 -0.0175,0.009 -4.24169,2.02479 -1.03672,0.4803 -1.05918,0.50777 -0.33808,0.16467 -0.31314,0.14847 -1.64678,0.79469 -0.86082,0.41045 -1.03547,0.4828 -0.78222,0.39048 -1.36607,0.64499 -1.01053,0.45785 -1.06042,0.50652 -0.87329,0.42292 -1.75905,0.83087 -2.39781,1.14776 -0.23205,0.10604 -1.05917,0.49902 -1.03673,0.4828 -1.06167,0.50652 -1.06167,0.48279 -0.44413,0.22707 -1.38853,0.66619 -0.26199,0.12476 -1.06168,0.50651 -0.67492,0.32935 -0.85708,0.40171 -0.56514,0.25575 -0.4117,0.20085 -1.3723,0.64375 h -0.0112 v 0 l -3.35219,1.5844 0.2021,-0.26823 0.2283,-0.28569 v -0.025 l 5.4144,-7.19716 2.53754,-3.41457 1.56069,-2.08093 0.85832,-1.17395 0.9731,-1.30993 3.04529,-4.18681 4.61596,-6.32262 3.61793,-5.12372 2.82945,-3.94229 2.5051,-3.57923 2.53254,-3.58174 2.56748,-3.70775 5.26719,-7.52652 9.57126,-13.98014 9.49641,-14.15104 0.85208,-1.27625 0.93068,-1.37232 v 0 l 1.5844,-2.39405 6.1305,-9.178291 9.47271,-14.390581 0.0212,-0.03119 h -0.0761 l -0.81217,-0.03368 -0.55017,-0.03867 -2.77083,-0.09606 h -1.3723 l -0.69864,-0.0237 h -3.4732 l -0.59758,0.01996 h -0.17341 -0.64249 v 0.01 l -6.47982,7.235836 -16.39166,17.724056 -1.59563,1.69543 -2.99414,3.11891 -11.65594,11.95035 -4.02462,4.04708 -0.65371,0.64249 -12.901,12.47558 -2.21442,2.08093 -12.86357,11.67464 -1.6368,1.42721 -11.06583,9.32924 -2.12086,1.74034 -11.02092,8.52831 -0.41918,0.31064 -10.38966,7.29946 -0.14097,0.0911 -8.60815,5.34329 -0.98183,0.5639 -6.50352,3.48318 -1.39477,0.66245 -5.47803,2.31922 -4.32528,1.32864 -0.63875,0.16593 -0.31065,0.0599 -3.13012,0.45412 -0.0948,0.01 -2.39905,-0.20336 -0.39922,-0.0911 -0.32936,-0.12475 -1.15773,-0.46285 -0.13224,-0.0773 -0.24952,-0.19213 -0.44163,-0.39048 -0.13973,-0.18589 -0.28444,-0.39796 v -0.005 l -0.38549,-0.79094 -0.21583,-0.94815 -0.0262,-0.13474 -0.0224,-0.5614 v -0.82089 l 0.0337,-0.27946 0.14971,-1.10284 h 0.01 l 0.4329,-1.68794 0.0611,-0.19712 0.74853,-2.03975 0.42667,-0.91446 0.49029,-0.99805 0.56264,-1.08413 1.4846,-2.58868 2.23188,-3.41207 2.79328,-3.84373 2.27679,-2.88685 1.31368,-1.59562 2.57871,-2.99414 2.45395,-2.71968 2.7047,-2.91929 4.78188,-4.90165 0.0561,-0.0561 5.01892,-4.82805 3.59921,-3.30603 2.35539,-2.12085 4.43506,-3.85745 1.97614,-1.65176 10.33476,-8.30125 0.11353,-0.0848 10.59302,-7.70367 2.44771,-1.69667 9.91559,-6.50352 1.81395,-1.10659 9.2182,-5.39943 1.47087,-0.82962 9.11965,-4.7033 3.02658,-1.42845 8.23388,-3.646621 0.95065,-0.384247 9.22069,-3.385873 0.007,0.02495 0.62377,-0.761011 0.64999,-0.729822 0.22954,-0.249511 0.66245,-0.748534 0.17217,-0.187134 0.73107,-0.748535 0.74853,-0.842101 1.55447,-1.603113 1.5058,-1.507049 0.0499,-0.0499 0.88702,-0.889508 0.24951,-0.242027 0.49902,-0.456606 1.04546,-0.985571 0.70612,-0.646235 v 0 l 0.0387,-0.03493 v 0 l 1.63181,-1.489584 0.87328,-0.770991 0.0561,-0.04991 -0.0749,0.01247 v 0 h -0.0362 l -1.90876,0.305653 -0.34558,0.05115 -0.49029,0.08234 -0.99805,0.159687 -0.82213,0.124757 -1.62183,0.27072 -1.03048,0.164677 -0.81839,0.124756 -0.96063,0.164677 -0.30814,0.04866 -1.02175,0.14846 -1.62183,0.27072 -4.02961,0.642492 v 0 l -5.71382,0.926936 -0.11477,0.01746 -0.0624,0.01123 -2.15578,0.349316 -4.28037,0.70986 -0.42042,0.06238 -0.31814,0.05989 -1.72412,0.28569 -0.27197,0.03992 -3.80006,0.63875 -4.80435,0.795942 -0.57886,0.08483 -0.51525,0.09856 -7.30944,1.212627 -3.35842,0.578867 -0.32936,0.0474 -2.26556,0.385496 -0.86207,0.162182 -1.13652,0.19462 v 0 l -0.32062,0.0549 -2.28428,0.384247 -0.55392,0.103548 -0.96811,0.167173 -0.79094,0.116023 -1.04296,0.198361 -0.51025,0.08733 -3.02782,0.507755 -1.15774,0.218323 -1.10908,0.193372 -0.31812,0.05864 -2.1483,0.374267 -2.13707,0.359297 -0.87329,0.16343 -0.78347,0.137231 -2.95172,0.499024 -1.54947,0.294423 -1.48833,0.260739 -2.29924,0.416685 -1.54698,0.258245 -1.13403,0.217075 -1.15649,0.193371 -1.13278,0.215828 -0.68616,0.114775 v 0 h -0.0274 l -0.44289,0.07361 -0.39423,0.07486 -1.57191,0.2807 -0.32438,0.05365 -0.26821,0.0524 -1.83517,0.328107 -0.18963,0.03243 -0.20709,0.03867 -2.75835,0.491537 -2.74463,0.499023 v 0 l -1.18144,0.215827 -0.1522,0.02994 -1.42595,0.261982 -0.71236,0.12476 -1.7603,0.33435 v 0 l -2.97543,0.53894 -0.97684,0.16468 -1.7341,0.32686 -2.2793,0.41419 v 0 l -0.40795,0.0773 -0.15968,0.0262 -1.25879,0.23953 -6.20036,1.16148 -0.56764,0.0948 -5.48926,1.03922 -1.8339,0.34308 3.0353,-4.20676 0.76226,-1.046704 0.22082,-0.314385 1.32116,-1.832663 1.20514,-1.764047 1.01303,-1.442177 1.28123,-1.918744 1.63555,-2.395311 1.77403,-2.709695 0.10729,-0.159688 0.0836,-0.132242 2.42277,-3.700256 1.11282,-1.83391 0.98432,-1.541982 1.56693,-2.656051 0.43914,-0.723584 0.0225,0.0075 1.97613,-3.42829 0.26573,-0.45411 0.14846,-0.264483 0.98557,-1.711649 0.67492,-1.270014 0.69864,-1.262529 2.34042,-4.508674 0.88577,-1.881317 0.99804,-2.024787 0.56639,-1.29247 0.12476,-0.276958 0.30565,-0.711108 1.24756,-2.8357 h 0.0112 l 0.48655,-1.24132 0.28569,-0.6637 0.35432,-0.96561 0.6325,-1.613092 0.68117,-1.946191 0.33809,-0.920698 0.41169,-1.247558 0.12475,-0.345573 0.0399,-0.135984 0.32062,-0.968105 0.74854,-2.676011 0.69863,-2.916791 0.11228,-0.578867 0.1048,-0.435398 0.15968,-0.920698 0.1784,-0.911964 0.0674,-0.499024 0.17341,-0.998046 0.15844,-1.437186 0.10604,-0.780972 0.0312,-0.467834 0.0237,-0.215828 0.0449,-0.374267 0.0137,-0.344326 0.0611,-1.206389 0.0674,-1.005531 -0.006,-0.217076 0.006,-0.11727 -0.0486,-2.849423 -0.26448,-2.50759 -0.13848,-0.732318 -0.0549,-0.450368 -0.33809,-1.621825 -0.41044,-1.543229 -0.79595,-2.220653 -0.2495,-0.512747 -0.71985,-1.535743 v 0 -0.02495 l -0.97683,-1.650519 -0.1784,-0.306899 -1.23135,-1.639291 -1.33488,-1.5207733 -1.51953,-1.4222161 -1.18268,-0.9656097 -0.2308,-0.1684204 -0.0836,-0.073606 -0.12475,-0.073606 -0.8234,-0.601323 -2.72466,-1.6218253 -2.91928,-1.3261541 -1.52577,-0.5651437 -0.0898,-0.038674 -0.0524,-0.013723 -0.28569,-0.1060424 -1.9961,-0.6025705 -2.05223,-0.5314598 -0.77099,-0.1484593 -0.0711,-0.018713 -0.1335,-0.021208 L 434.34417,0.96969776 432.17466,0.60790595 430.27089,0.40205889 429.56976,0.29601647 428.296,0.2423715 426.09656,0.07769386 422.934,0.02030619 422.6009,0.00658306 v 0 h -0.0437 v 0 h -0.10479 L 422.11746,0 l -4.53237,0.16842033 -2.12085,0.17715322 -0.79968,0.0386743 v 0 h -0.0262 -0.0175 v 0 l -0.56389,0.0748535 -1.10409,0.0923192 -4.69207,0.61754115 -3.56677,0.5776193 -3.54555,0.6761764 -3.94978,0.91446 -1.15897,0.237036 v 0 l -0.0249,0.00748 v 0 h -0.0175 v 0 l -0.7161,0.1971141 -1.31617,0.3044041 -7.18469,1.9960927 -0.54893,0.1771532 -0.82089,0.2245605 v 0 l -0.0299,0.011228 h -0.0137 v 0 l -1.93622,0.6637008 -3.83873,1.2488055 -4.30158,1.5557048 -1.3274,0.4553579 v 0 l -0.0412,0.01622 h -0.007 v 0 l -0.59259,0.23953 -0.4566,0.165926 -6.74929,2.65106 -3.88365,1.671728 -0.41294,0.167173 v 0 l -0.0474,0.02245 h -0.006 v 0 l -0.31314,0.145965 -2.45021,1.054187 -7.03871,3.327236 -1.69918,0.849587 -1.12281,0.525223 -1.19016,0.631264 -3.60919,1.803968 -7.56768,4.098228 -0.67493,0.383001 -0.0249,0.01372 v 0 l -0.0274,0.01497 -0.0125,0.0075 v 0 l -0.0699,0.04116 -4.10945,2.335429 -4.91913,2.894335 -4.14189,2.578702 -0.0923,0.0549 v 0 l -0.0312,0.01996 -0.0112,0.0075 v 0 l -0.10604,0.06987 -0.53521,0.333098 -4.89417,3.110161 -5.79491,3.893629 -2.17699,1.422216 v 0 l -0.89075,0.642492 -0.75727,0.507756 -9.4253,6.749289 -1.68171,1.284985 -0.99804,0.716097 -1.96366,1.544478 -4.66711,3.566768 -5.9284,4.769414 -1.19766,0.941906 v -0.02495 l -0.99805,0.847093 -0.62377,0.499023 -8.62936,7.303204 -2.24561,2.012311 -1.34361,1.146506 -0.0187,0.06238 -0.34059,0.314384 -4.51117,4.034603 -8.33992,7.734859 -7.23584,7.087376 -7.13603,7.235835 -0.01,0.01 -0.0524,0.0536 v 0 l -0.0349,0.0374 h -0.006 v 0 l -0.18464,0.19836 -6.72808,7.02625 -5.18235,5.61401 -1.47836,1.64678 -0.37427,0.40296 -0.55017,0.62378 -2.70221,3.0091 -8.43724,9.71474 -0.64623,0.7685 -1.8127,2.07593 -2.56249,3.12763 -3.7539,4.46501 -6.63327,8.21766 -1.54447,1.88631 v 0 l -0.0249,0.0324 v 0 0 l -0.37427,0.48904 -11.29664,2.76958 h -0.0187 v 0 l -4.66836,1.20889 -5.4144,1.34112 -10.6317,2.74463 -4.3365,1.18766 -1.79774,0.46659 -0.0187,-0.0125 h -0.009 l -4.95031,1.40849 -4.19554,1.15026 -6.3875,1.86135 -6.95887,1.99734 v 0 l -0.0374,0.0112 h -0.0125 -0.009 v 0 l -2.02229,0.64375 -11.17812,3.50065 -3.32973,1.1228 -3.15508,0.99804 -2.57745,0.9182 -3.74267,1.24757 -6.55592,2.33916 -4.03585,1.5083 -0.550173,0.19587 v 0 l -0.03119,0.0125 h -0.0087 v 0 l -0.397971,0.15969 -1.485842,0.55516 -5.953346,2.33918 -5.904692,2.41277 -1.533248,0.6612 -0.365535,0.14597 v 0 l -0.03742,0.0162 v 0 0 l -0.674929,0.30316 -5.43561,2.34292 -6.694395,3.10018 -1.265024,0.56763 v 0 l -0.03742,0.02 h -0.0075 v 0 l -1.044207,0.53146 -3.660334,1.79275 -4.774405,2.45893 -2.058471,1.09286 -0.978084,0.49902 h -0.0087 l -0.0075,0.0274 -1.574418,0.83711 -4.581033,2.60366 -4.879199,2.91554 v 0 l -0.01372,0.009 -1.039216,0.62378 -5.761222,3.71274 -1.746581,1.22011 -1.238826,0.80467 -0.01,0.006 v 0.0112 0 0.0125 l -0.767248,0.57014 -1.731611,1.20763 -4.508674,3.40084 -0.513994,0.41419 -0.930679,0.69364 h -0.0087 v 0.0225 l -0.723584,0.62377 -2.112115,1.70917 -4.14813,3.68902 -3.8824,3.78509 -1.739096,1.88132 -0.417932,0.42042 v -0.006 l -0.03493,0.0424 v 0 l -0.0075,0.007 v 0 l -0.269473,0.32312 -1.097851,1.18768 -3.2311753,4.00341 -0.069863,0.0936 -0.082339,0.0973 v -0.0125 l -0.1759057,0.25824 -1.1677142,1.56569 -1.3723137,2.02478 -0.7485348,1.24757 -0.3355931,0.49902 v 0 l -0.3056517,0.58135 -0.4179319,0.69614 -1.5681803,3.01536 -0.1983617,0.44911 -0.2819481,0.53645 -0.2495116,0.66495 -0.5489255,1.24756 -0.9893134,2.86938 v 0.02 l -0.064874,0.17465 v 0 L 1.169543,254.46664 0.55574444,256.90812 0.266311,258.57236 0.09664312,260.2366 0,261.85867 l 0.0249512,1.56943 0.24077868,2.34041 0.1334887,0.70363 0.0598828,0.57138 v 0 l 0.18588614,0.72483 0.053645,0.28818 0.1160229,0.37427 0.15095452,0.59135 0.35056386,1.03921 0.059883,0.19088 0.026199,0.0636 0.2145799,0.635 h 0.023703 v 0.007 l 0.8445967,1.88007 0.9693526,1.66675 0.092319,0.16842 0.4229222,0.58884 0.7834663,1.12281 0.1334886,0.15843 0.1796484,0.24952 0.451616,0.49902 0.635007,0.75602 0.4316551,0.42417 0.2919285,0.32437 0.4416356,0.39921 0.4678341,0.46035 v 0 h 0.00748 l 0.034931,0.0337 v 0 l 0.7048702,0.60007 0.3742674,0.33559 0.2158275,0.16468 0.4591013,0.39049 0.5888468,0.4092 0.15844,0.12475 1.49707,1.03797 1.568181,0.96436 1.66549,0.89325 0.573876,0.24951 0.71485,0.36803 v 0 l 0.01372,0.006 0.03119,0.0162 v 0 l 2.619872,1.09535 2.737142,0.91321 0.565143,0.19712 1.079138,0.28195 1.646777,0.46534 0.698632,0.14471 0.542688,0.1335 1.062919,0.19088 1.057929,0.21956 1.041711,0.15719 1.009274,0.17965 2.89184,0.38675 2.965445,0.26448 2.774569,0.12476 2.820728,0.0249 1.518279,-0.0249 h 0.268225 v 0.0262 l 0.87329,-0.0437 h 0.309394 l 1.905022,-0.10854 1.182684,-0.0599 v 0 h 0.02744 0.01497 l 4.441306,-0.38425 4.532379,-0.62378 1.165218,-0.2021 1.727868,-0.25576 1.293718,-0.27196 0.487795,-0.0848 v 0 l 0.04116,-0.009 v 0 l 2.301744,-0.49903 1.948686,-0.4092 0.340583,-0.0911 0.142221,-0.0312 4.892922,-1.24756 4.895418,-1.49707 0.506509,-0.17216 0.698632,-0.21333 3.051527,-1.06792 0.758515,-0.25824 0.200857,-0.0773 1.366076,-0.47781 2.894334,-1.1465 0.528965,-0.20211 0.374267,-0.15345 1.559447,-0.62378 1.860109,-0.81091 1.347363,-0.56265 0.838359,-0.38924 1.042958,-0.45411 2.552504,-1.21637 0.652473,-0.30315 0.364286,-0.18215 1.49707,-0.70986 1.462138,-0.75976 1.871332,-0.92818 1.43344,-0.78472 0.24952,-0.13099 0.62378,-0.35182 2.79328,-1.52825 2.23313,-1.32366 1.74658,-1.01552 0.7373,-0.4566 0.49154,-0.29068 1.21263,-0.76226 1.2226,-0.75726 0.74106,-0.47907 1.95866,-1.23258 5.25596,-3.56802 1.88881,-1.36483 0.88327,-0.61131 0.89449,-0.67493 1.46838,-1.06041 3.56802,-2.74464 1.03671,-0.78221 0.27696,-0.22581 0.39798,-0.30565 2.87562,-2.36412 3.24365,-2.64857 2.34167,-2.06222 2.09465,-1.79522 1.33488,-1.22387 0.2807,-0.2495 0.76475,-0.71111 2.86939,-2.63859 1.30993,-1.26003 1.00429,-0.93443 1.13528,-1.1228 2.10712,-2.02478 v 0 l 1.67172,-1.70791 0.89575,-0.88452 2.03477,-2.11086 0.90573,-0.92694 0.47782,-0.51026 1.69292,-1.75655 3.20374,-3.46572 0.74853,-0.79719 v 0 l 0.0462,-0.0512 v 0 0 l 0.28444,-0.31937 0.72983,-0.7897 2.61987,-2.97917 2.38908,-2.686 0.62377,-0.73605 1.64428,-1.87134 5.72131,-6.82788 1.17519,-1.38729 v 0 l 0.0399,-0.0487 0.006,-0.007 v 0 l 1.2276,-1.51953 3.42454,-4.21674 1.70417,-2.13708 2.60365,-3.22368 v 0 l 1.97863,-2.52007 2.65855,-3.33222 14.43424,-18.43392 0.37427,-0.0699 2.92427,-0.74853 2.63485,-0.65123 0.10604,-0.0237 0.22331,-0.0574 1.98487,-0.49029 0.0324,-0.007 0.0324,-0.009 1.76779,-0.43665 0.46534,-0.10979 0.82963,-0.21083 2.1957,-0.54393 0.37427,-0.0873 0.6612,-0.16967 2.52756,-0.62378 1.34361,-0.31314 1.74659,-0.45162 0.87328,-0.21582 0.75603,-0.17716 0.72857,-0.18589 3.13636,-0.76599 0.66869,-0.15595 0.62377,-0.15968 1.04546,-0.24952 0.59883,-0.13972 0.56889,-0.14472 1.15399,-0.28195 0.54269,-0.12476 0.51649,-0.13223 0.44662,-0.10854 1.49707,-0.36554 0.93318,-0.21458 0.96435,-0.24951 3.2212,-0.78221 0.34558,-0.0798 0.15718,-0.0412 2.93427,-0.71235 0.28319,-0.0661 0.19587,-0.0499 1.82642,-0.44288 0.26697,-0.0611 1.11034,-0.26574 0.61379,-0.15718 4.18931,-1.01676 0.8608,-0.20086 0.5926,-0.15096 1.26253,-0.3069 0.0873,-0.0212 1.45714,-0.33934 0.5639,-0.14472 2.14205,-0.51399 1.82519,-0.42666 0.70487,-0.17965 1.52077,-0.36429 2.30673,-0.54019 0.73356,-0.18838 0.69364,-0.16468 0.83962,-0.17841 1.1228,-0.28817 h 0.01 l 2.25808,-0.52773 0.48155,-0.12475 1.12281,-0.26823 0.65746,-0.13972 0.88452,-0.22581 0.77349,-0.18464 0.62377,-0.14347 1.10783,-0.26573 2.29052,-0.53022 2.2456,-0.5302 0.57014,-0.14222 6.47981,-1.52453 20.4899,-4.79186 5.73876,-1.30869 0.78222,-0.16343 0.55143,-0.14098 2.86937,-0.65496 4.2417,-0.97434 0.29443,-0.0624 1.69169,-0.39546 3.45822,-0.79594 0.51524,-0.1098 1.86136,-0.43539 2.06471,-0.47158 0.60507,-0.12476 2.29052,-0.53145 1.13278,-0.24079 2.26556,-0.53021 1.13403,-0.24077 2.72092,-0.63751 1.17271,-0.26448 0.6375,-0.13599 1.28623,-0.29691 1.49707,-0.33684 1.77154,-0.37427 2.32794,-0.54518 1.72287,-0.3855 0.50651,-0.10479 0.766,-0.1809 0.69115,-0.15469 0.80842,-0.17092 0.90448,-0.21208 0.4304,-0.0973 0.93069,-0.19712 1.04295,-0.24951 0.15969,-0.0362 2.22065,-0.46659 2.28054,-0.53395 2.51258,-0.55517 0.8945,-0.18838 0.74229,-0.1734 0.98932,-0.21957 1.66799,-0.35431 1.0729,-0.24952 -3.0927,3.94853 -5.76497,7.19716 -1.34486,1.65676 -2.21567,2.67351 -6.50976,7.80098 -5.85603,6.83662 -3.36841,3.9086 -8.29875,9.40035 -1.59563,1.79648 -8.05923,8.92628 -1.65924,1.83765 -7.95444,8.62811 -15.35743,16.38543 -8.10912,8.54078 -1.74659,1.8414 -14.69,15.18651 -6.28644,6.42369 -30.72111,31.18894 -3.77137,3.78135 -33.14761,33.10271 v 0 l -35.28344,35.03017 -0.0486,0.0487 16.36173,-2.66479 h 0.0112 v 0 l 0.0112,-0.01 0.01,0.0125 19.40701,-17.77646 24.27499,-22.45604 5.66766,-5.31959 2.43273,-2.2456 3.76888,-3.57301 12.11628,-11.37274 14.58894,-13.93397 5.44309,-5.15741 v -0.0262 l 0.82839,-0.80842 2.73713,-2.61363 11.47754,-11.13696 11.30537,-11.08829 2.00981,-1.99609 2.52256,-2.45894 3.59547,-3.62914 6.55342,-6.51975 14.36314,-14.57521 1.07164,-1.11032 1.04921,-1.05918 0.0324,-0.0324 v 0 l 2.44148,-2.55874 9.43527,-9.77587 8.51084,-8.94249 2.39157,-2.57247 v 0.0162 l 0.70362,-0.76975 5.22353,-5.614 7.66624,-8.35864 7.52153,-8.36488 10.05158,-11.49874 3.24364,-3.81628 1.97988,-2.26931 v 0 l 0.0212,-0.0249 0.0212,0.0137 v -0.0362 l 0.0112,-0.0112 v 0 l 1.59686,-1.93871 2.79952,-3.29605 9.13213,-11.20431 0.79096,-0.16967 0.77972,-0.17341 0.21832,-0.0511 2.8881,-0.62378 v 0 h 0.0175 0.0262 v 0 l 3.11266,-0.68241 0.58261,-0.10979 1.13402,-0.26448 3.39835,-0.72358 0.47408,-0.10854 0.70487,-0.15095 v 0.025 l 1.64803,-0.3618 1.72786,-0.37427 0.79969,-0.18712 0.57512,-0.12477 1.01925,-0.21333 1.02799,-0.19586 0.74854,-0.17591 1.88756,-0.39422 v 0 h 0.0274 0.0112 0.0112 v 0 l 4.74072,-1.01053 0.88951,-0.19088 0.79719,-0.17091 1.15774,-0.21582 1.13278,-0.26574 1.13279,-0.24077 1.15772,-0.21833 0.78971,-0.18838 1.03173,-0.20959 0.44413,-0.0823 0.2308,-0.0549 0.68491,-0.13848 h 0.0175 v 0 l 4.70704,-0.98557 3.29605,-0.68491 0.1996,-0.0374 0.83588,-0.19462 0.42666,-0.0886 h 0.0112 l 6.21534,-1.3012 0.49902,-0.0948 0.46659,-0.10729 1.74658,-0.36429 0.0549,-0.0112 0.49029,-0.1023 4.67085,-0.9494 v 0 h 0.0162 0.0299 v 0 l 2.39656,-0.49902 0.39423,-0.0748 2.28053,-0.48281 1.87133,-0.37427 0.40546,-0.0773 0.53022,-0.11228 0.95063,-0.19461 0.80967,-0.15095 0.42417,-0.0998 4.00466,-0.81465 -4.13191,2.44146 -3.6254,2.26432 -0.40047,0.24203 -6.23779,4.06953 v -0.0162 l -1.62931,1.1228 -0.52398,0.34432 -0.92069,0.65372 -3.10393,2.14206 -2.95297,2.14954 -1.04919,0.74853 -0.70362,0.53147 -1.5869,1.15648 -6.15046,4.67959 -6.17167,4.96653 -5.95584,5.04637 v 0 l -0.0399,0.0374 v 0 0 l -0.81965,0.74854 -1.13153,0.96686 -6.51101,5.88223 -2.01979,1.92624 -1.04671,0.95063 v 0 l -0.0487,0.0487 v 0 l -1.03423,1.03672 -2.12085,2.02104 -6.09806,6.14548 -1.14525,1.21761 -0.16967,0.16843 v -0.0275 l -0.8945,0.98807 -3.19251,3.39211 -5.15739,5.80988 -0.1809,0.21208 v -0.0162 l -0.31563,0.38799 -2.66105,3.12763 -3.06276,3.76264 -2.74462,3.56802 -2.66479,3.56177 -2.81074,4.02712 -0.22581,0.31189 -0.0823,0.12475 -0.11228,0.16094 -3.18252,4.96652 -0.74229,1.26753 -0.8733,1.38354 v 0.006 0.0474 l -0.33309,0.62379 -0.94067,1.6081 -1.3012,2.47015 -0.892,1.85762 -0.16592,0.31314 v 0 l -0.11229,0.27072 -0.009,0.0187 -1.34861,3.03905 -0.77972,2.09715 -0.21084,0.50776 -0.0686,0.24951 -0.0524,0.13972 -0.98682,3.30478 -0.1547,0.77848 -0.13473,0.47657 -0.0861,0.63625 -0.2495,1.26877 -0.19338,1.51952 -0.02,0.65123 v 0.0225 0.0324 l -0.0249,0.79095 0.0723,1.90627 0.0886,0.51274 0.007,0.18963 0.0661,0.23954 0.15095,0.87328 0.48406,1.54573 0.70112,1.42596 0.60382,0.83088 0.12476,0.20709 0.13723,0.14846 0.0324,0.0449 0.11851,0.11727 0.60008,0.64997 v 0.0237 l 0.36179,0.28819 0.009,0.007 0.0674,0.0524 0.63251,0.49903 0.0948,0.0574 0.0499,0.0387 0.8945,0.55516 0.14472,0.0711 0.12475,0.0736 0.23205,0.0998 0.49029,0.23828 1.06417,0.41045 0.61379,0.15345 0.74853,0.22706 v 0 h 0.01 0.006 l 0.0274,0.009 v 0 l 0.64623,0.12475 0.26823,0.0674 0.32312,0.0437 0.66744,0.12476 0.53271,0.0387 0.0699,0.009 1.7129,0.12476 h 2.43523 v 0 h 0.0262 0.0175 l 2.99414,-0.26324 1.83141,-0.29567 0.14722,-0.0187 0.14721,-0.0287 1.00927,-0.16219 1.31492,-0.29317 1.09661,-0.21458 0.68491,-0.1809 0.59259,-0.13224 1.39976,-0.39547 0.96312,-0.25576 0.90073,-0.27197 0.56888,-0.16093 h 0.0162 v -0.009 l 0.0649,-0.0212 1.24756,-0.37427 2.82073,-0.96436 0.17091,-0.0636 0.0237,-0.009 0.20085,-0.0761 3.26986,-1.22511 0.44412,-0.18463 0.56141,-0.21334 v 0 l 0.0249,-0.01 h 0.006 0.0137 v 0 l 1.1228,-0.48779 1.53825,-0.63875 1.0679,-0.49154 1.33864,-0.58011 v 0 l 0.0249,-0.0125 v 0 h 0.0137 v 0 l 1.74658,-0.84085 1.24756,-0.57637 0.90822,-0.46035 1.20389,-0.57138 v -0.0412 l 2.13583,-1.10908 1.2251,-0.62378 0.70112,-0.38051 1.58939,-0.82463 2.29302,-1.27875 0.88826,-0.48156 0.79968,-0.45909 1.64054,-0.91446 v 0 l 0.0524,-0.0312 v 0 l 1.1228,-0.67618 1.20514,-0.69238 3.25986,-1.99609 0.49903,-0.30067 0.21583,-0.13599 0.84459,-0.51648 1.15026,-0.74853 3.88863,-2.46019 6.45362,-4.40638 v 0.0175 l 1.24756,-0.88951 0.80842,-0.55391 1.59313,-1.16148 2.79452,-1.99609 1.99609,-1.49707 0.29942,-0.21833 0.55018,-0.41917 3.75515,-2.8095 v 0 l 0.0412,-0.0337 h 0.007 v 0 l 6.60582,-5.23226 2.07843,-1.7079 0.7922,-0.63377 0.77474,-0.65371 3.25238,-2.67228 3.7776,-3.2661 0.44039,-0.37427 0.34433,-0.30565 2.21192,-1.9125 4.00092,-3.62666 1.55694,-1.38729 0.76226,-0.7111 0.49279,-0.44538 6.52223,-6.1018 -0.75851,0.96435 -0.39672,0.48032 -0.39423,0.52647 -0.32562,0.41294 v 0 l -16.73224,20.7394 v 0.02 l -0.10605,0.131 -15.1179,17.70659 -0.24952,0.26073 -0.41044,0.48156 0.0137,0.0125 v 0.007 0 l -0.51275,0.24952 -26.97095,12.83986 -3.03531,1.48709 -15.16532,7.3606 -9.12339,4.54983 -3.41082,1.67173 -1.85387,0.94815 -0.94315,0.47033 -9.44901,4.76941 -9.33048,4.84427 -9.4253,5.03889 -8.33868,4.64465 -2.00233,1.09162 -0.63501,0.37427 -0.66744,0.37427 -5.68886,3.30228 -5.61402,3.34969 -5.88223,3.69028 -5.73877,3.73519 -0.78721,0.54767 -0.91945,0.5926 v 0 l -0.0337,0.0237 v 0 0 l -1.65551,1.20139 -2.37036,1.64679 -4.10821,3.04528 -0.9207,0.66745 v 0 l -0.0324,0.0262 v 0 l -0.009,0.007 v 0 l -0.18464,0.15221 -0.24204,0.17964 -5.13369,4.16934 -1.29247,1.14776 -0.23454,0.19337 v -0.007 l -0.0412,0.0412 h -0.006 v 0 l -0.22331,0.21582 -1.21762,1.08039 -2.77083,2.72467 -0.41543,0.44164 -0.74853,0.72108 v -0.0112 l -0.83088,0.97308 -0.85582,0.91322 -1.79025,2.18572 -0.49902,0.58635 -0.0886,0.1335 -0.12475,0.15718 -1.08538,1.54449 -0.98931,1.51952 -0.25825,0.47158 -0.19837,0.29816 v 0 0 0 0 l -0.18213,0.40046 -0.49029,0.89575 -0.89325,2.02729 -0.10355,0.3306 -0.0162,0.0349 v 0 l -0.025,0.10229 -0.48031,1.537 -0.23204,1.26876 -0.0811,0.32188 v 0.13224 l -0.0474,0.25949 -0.0487,1.85636 0.0736,0.48531 v 0.14596 l 0.14722,0.82464 0.0474,0.31064 0.0187,0.0561 0.0275,0.15346 v 0 l 0.4379,1.28623 0.0487,0.096 0.0237,0.0711 0.13847,0.24951 0.39298,0.78722 0.16469,0.23329 0.1497,0.27446 0.28569,0.34557 0.19711,0.2807 0.35929,0.39298 0.29443,0.35556 0.16219,0.14347 0.21582,0.23578 v 0 0 l 0.0412,0.0449 v 0.005 l 0.72607,0.59633 0.24951,0.22206 0.0898,0.0586 0.1023,0.0848 1.48335,0.95812 v 0 0 h 0.009 l 0.0287,0.0187 v 0 l 1.6605,0.83088 0.37427,0.14347 0.0549,0.0262 0.21833,0.0761 1.39851,0.52647 0.4329,0.11354 0.36429,0.12475 0.95063,0.21208 0.45786,0.12476 v 0 h 0.0287 0.015 v 0 l 0.38674,0.0711 0.81965,0.18714 0.68117,0.0923 0.66869,0.12475 1.09785,0.11602 0.39797,0.0536 0.69489,0.0611 0.5589,0.0586 0.19837,0.007 0.74854,0.0661 2.00856,0.0412 0.13723,0.006 h 0.0586 0.0611 l 2.5575,-0.0474 0.20959,-0.0162 0.34682,-0.007 v 0 h 0.0262 0.0175 l 1.48459,-0.12475 0.51899,-0.0387 0.4067,-0.0424 1.16148,-0.10106 0.49902,-0.0711 0.49154,-0.0512 2.59616,-0.38549 2.77208,-0.49903 0.99804,-0.21083 0.39298,-0.0748 v 0 l 0.0337,-0.007 h 0.01 l 0.28943,-0.0699 1.14277,-0.24078 1.27251,-0.34183 1.35359,-0.32687 v 0 l 0.0225,-0.007 v 0 h 0.0175 v 0 l 2.07468,-0.59758 0.80343,-0.21708 0.40296,-0.12475 1.13903,-0.3281 3.5705,-1.20265 0.52897,-0.17217 0.13099,-0.0499 0.2071,-0.0699 4.73324,-1.82143 0.4067,-0.17466 0.17091,-0.0649 0.74854,-0.3306 3.39461,-1.45465 1.11406,-0.52148 0.40421,-0.17716 1.6892,-0.80342 1.78401,-0.83961 0.32935,-0.17092 0.15344,-0.0724 3.92982,-2.02478 0.14097,-0.0773 0.41169,-0.21208 h 0.015 v -0.0137 l 4.61597,-2.53378 2.25932,-1.36484 3.5518,-2.12708 v 0 l 0.0487,-0.0312 v 0 0 l 2.13708,-1.38105 2.2456,-1.41224 1.10409,-0.74854 0.0287,-0.02 0.59383,-0.4042 2.05973,-1.40351 0.21832,-0.1522 2.6024,-1.77652 5.75998,-4.26665 1.14027,-0.88452 1.46463,-1.09286 1.71664,-1.37232 1.33738,-1.03671 v 0.0199 l 2.32545,-1.91999 1.94744,-1.55695 1.51827,-1.29871 0.26574,-0.21957 3.0116,-2.58494 2.39157,-2.0435 0.15969,-0.14347 0.33933,-0.29067 v 0 l 0.0424,-0.0387 0.0137,-0.0125 v 0 l 2.14454,-1.94743 2.38783,-2.1483 0.68367,-0.63875 1.07539,-0.97559 1.69668,-1.61184 1.60561,-1.49707 1.3723,-1.32865 1.55072,-1.46838 1.24756,-1.24008 0.4616,-0.44786 1.53449,-1.53325 3.45824,-3.43204 2.27679,-2.37035 2.08591,-2.13957 1.18019,-1.26003 1.00803,-1.05044 v 0 l 0.0274,-0.0299 v 0 0 l 1.56942,-1.70292 0.88078,-0.94066 1.15898,-1.27251 3.50065,-3.79881 0.0175,0.01 2.61987,-2.95921 1.76155,-1.93496 1.81395,-2.09216 0.82588,-0.93067 2.63734,-3.06151 3.58049,-4.1419 0.75976,-0.91571 0.51899,-0.60381 6.30889,-7.62757 1.08788,-1.30744 0.35805,-0.16718 1.03672,-0.5065 0.31687,-0.16218 2.20693,-1.07789 0.63377,-0.30191 2.07343,-1.01302 1.06043,-0.5065 1.03672,-0.53022 0.60132,-0.29318 0.97934,-0.47282 0.51648,-0.24951 0.0811,-0.0412 1.50954,-0.72858 h 0.009 v -0.0262 l 0.49029,-0.23453 0.70862,-0.34558 2.94424,-1.41972 0.26323,-0.12476 0.28943,-0.13723 0.3069,-0.15345 3.28233,-1.61309 h 0.006 l 2.17949,-1.06417 1.54947,-0.7398 1.03547,-0.50775 0.74853,-0.38176 0.85708,-0.41793 1.55196,-0.7423 2.07094,-1.01177 2.12086,-1.01301 1.03547,-0.52897 1.03672,-0.50775 1.06167,-0.48156 0.86081,-0.44039 0.4878,-0.23454 0.31064,-0.1522 0.4379,-0.2096 1.03547,-0.49902 1.05918,-0.50776 1.03921,-0.5302 0.61504,-0.30067 2.10838,-1.01052 0.43291,-0.20709 0.12475,-0.0599 1.13278,-0.54268 0.26074,-0.12475 0.55766,-0.2595 0.54019,-0.27072 2.7858,-1.3511 0.67118,-0.32811 0.22083,-0.1048 1.03546,-0.50651 1.06168,-0.49902 1.03547,-0.50651 1.06168,-0.50776 1.03671,-0.5065 0.44163,-0.22581 1.18643,-0.57263 0.46909,-0.21333 1.05918,-0.49903 1.03796,-0.5065 2.12085,-1.01302 0.31064,-0.16219 1.72787,-0.83461 0.0337,-0.015 1.06167,-0.49902 0.99805,-0.4878 -0.02,0.13474 -0.45286,2.95671 -0.0287,0.29942 -0.0449,0.30565 v 0.16842 l -0.0736,0.79594 v 1.51953 l 0.0961,1.401 0.19337,1.32865 0.37427,1.44467 0.0624,0.31439 v 0 0 l 0.10105,0.22206 0.57387,1.46588 0.45162,0.74604 0.0823,0.17841 0.13224,0.18713 0.15969,0.27196 0.27196,0.33685 0.257,0.36303 0.27073,0.29068 0.21457,0.26574 0.2308,0.21208 0.24952,0.26199 v 0.0262 l 0.61504,0.49902 0.11727,0.10854 0.096,0.0661 0.36304,0.29692 0.65746,0.4067 0.28445,0.19587 0.21458,0.11228 0.17091,0.10604 0.24951,0.11477 0.37427,0.19837 0.62378,0.26698 0.29816,0.13723 v 0 h 0.015 l 0.0274,0.0125 v 0 l 0.10853,0.0374 h 0.009 l 0.0237,0.007 1.56943,0.52397 0.5352,0.11228 0.26074,0.0798 1.06042,0.19961 0.19462,0.0412 0.0624,0.007 0.34682,0.0661 1.74658,0.19212 2.86939,0.096 2.00981,-0.11228 0.7635,-0.0312 0.17591,-0.02 h 0.0873 l 1.47212,-0.17092 1.6892,-0.19088 1.71414,-0.30066 1.05917,-0.18213 0.15221,-0.0312 0.61504,-0.10853 v 0 h 0.0237 v 0 h 0.0187 v 0 l 0.95314,-0.22207 1.1016,-0.23204 0.84958,-0.22206 1.29746,-0.30192 v 0 l 0.0312,-0.009 h 0.0112 v 0 l 4.32279,-1.24756 5.15741,-1.73659 0.75601,-0.2832 0.15969,-0.0536 0.58885,-0.22705 3.70525,-1.38854 0.92194,-0.38799 0.3069,-0.12475 1.24756,-0.5377 3.47195,-1.46214 5.97456,-2.7596 v 0 l 6.90024,-3.43827 0.0237,-0.0125 0.4092,-0.20335 7.23584,-3.83375 5.60652,-3.18127 1.33489,-0.74854 0.41918,-0.2495 5.19732,-3.05278 5.30462,-3.25364 1.76155,-1.13028 3.34721,-2.07844 v 0 l 4.66211,-3.06399 0.78597,-0.49903 0.92568,-0.62377 1.9175,-1.26004 2.52381,-1.71664 1.71789,-1.1515 1.38479,-0.95937 3.19624,-2.17449 2.07219,-1.47462 0.4117,-0.28444 3.56926,-2.54876 2.67601,-1.90377 -0.0137,0.0362 2.37037,-1.74657 3.699,-2.68225 6.45861,-4.86548 5.59155,-4.28911 0.19587,-0.14845 0.0437,-0.0349 0.5826,-0.44662 3.00412,-2.39282 5.62524,-4.45378 1.39602,-1.13777 2.29301,-1.82643 2.90806,-2.41651 2.53628,-2.06971 v 0 l 0.0237,-0.02 0.0125,-0.009 v 0 l 3.2212,-2.71469 3.4233,-2.84443 1.68295,-1.4584 1.01427,-0.85457 9.00612,-7.83092 0.02,-0.0175 -11.29789,15.45974 -10.00042,13.23783 -4.5224,5.84232 -5.03264,6.47608 -6.5659,8.30749 -4.41511,5.54414 -9.55131,11.88798 -11.73951,14.41428 -0.0349,0.0437 22.7617,-3.18876 0.009,-0.009 v 0 l 12.62528,-11.48751 25.18196,-22.74548 2.74463,-2.46018 17.69412,-15.49592 0.46907,-0.40546 14.16478,-11.82436 1.05294,-0.86205 10.26864,-7.97689 2.4814,-1.83765 10.04659,-7.1011 v 0 l 9.94802,-6.237794 9.54632,-5.206059 0.0399,-0.02121 v -0.01622 l 0.59383,-0.286938 8.92628,-4.090743 2.93551,-1.168962 2.75335,-1.062919 4.33527,-1.528258 5.02766,-1.59438 0.68117,-0.205846 5.22227,-1.44093 -0.58635,0.486547 -4.11694,3.296049 -3.08396,2.682249 -0.34058,0.283196 -0.27821,0.249512 -0.92693,0.805922 -2.02979,1.908763 -0.86081,0.790952 -0.55267,0.538945 -1.04171,0.979333 -0.892,0.906975 -1.45092,1.41473 v 0 l -0.0462,0.0499 v 0 0 l -0.81091,0.884519 -1.4347,1.442176 -4.38765,4.865481 -0.24952,0.30067 -0.48156,0.52521 v 0 l -0.0299,0.0387 -0.007,0.007 v 0 0 l -0.85833,1.07164 -2.17323,2.58619 -3.49317,4.47375 v -0.0524 l -1.05793,1.52826 -2.43523,3.42954 -1.02051,1.56194 -1.2251,1.76903 -0.01,0.0112 v 0 l -0.63126,1.07165 -0.24952,0.37427 -2.55374,4.2916 -0.41045,0.77348 -0.79968,1.35486 v 0.0274 l -0.74854,1.53325 -0.3331,0.62378 -1.47586,3.0902 -0.98932,2.03102 -0.60381,1.60561 -0.45286,1.06168 -0.72733,2.07718 -0.70113,1.86509 v 0.01 0 l -0.55266,2.03353 -0.7161,2.52381 -0.1048,0.49902 -0.21708,0.79969 v 0 l -0.0973,0.7136 -0.0125,0.0611 -0.33684,2.07344 -0.16343,1.59812 -0.0886,0.64624 v 0.21083 l -0.015,0.15095 -0.0237,2.48514 0.0624,1.27875 v 0.18963 0 l 0.0324,0.18838 0.14347,1.18892 0.33684,1.78776 0.0486,0.14969 0.0462,0.27322 0.20709,0.51649 0.23205,0.72608 0.44912,0.97435 0.29567,0.73605 0.49903,0.69489 0.42292,0.68491 0.39547,0.4616 0.36304,0.50776 v 0 l 0.0137,0.0125 0.10355,0.14472 v -0.0499 l 0.26074,0.24077 v 0 l 0.009,0.007 0.69489,0.64499 1.13278,0.85208 v 0 l 0.0274,0.015 0.0761,0.0574 v -0.0162 l 1.28373,0.68616 1.49707,0.5564 1.64179,0.39298 v 0.0349 l 1.88755,0.24951 2.14954,0.0474 2.22439,-0.14472 2.65107,-0.43415 0.0449,-0.007 v -0.0424 l 0.35181,-0.0848 2.15703,-0.49902 2.33792,-0.72359 0.27322,-0.0961 0.59134,-0.18338 v 0 l 0.0237,-0.01 v 0 h 0.015 v 0 l 0.81839,-0.31438 0.66371,-0.23454 0.7635,-0.31563 0.8446,-0.32436 v 0 l 0.0274,-0.0125 v 0 h 0.0162 v 0 l 0.46409,-0.21458 0.63002,-0.26073 2.79702,-1.30245 2.48389,-1.30245 0.58137,-0.32063 0.21707,-0.11228 0.2832,-0.16467 1.40475,-0.77598 1.11032,-0.68242 1.23009,-0.7136 v 0 l 0.0362,-0.0224 h 0.009 v 0 l 1.45465,-0.93817 1.10159,-0.67742 0.76725,-0.52772 0.67867,-0.43789 1.9961,-1.40226 1.42845,-0.98308 0.41918,-0.31563 0.54643,-0.383 3.19874,-2.43523 0.61005,-0.4591 0.12476,-0.0961 0.41044,-0.31313 0.009,-0.007 v 0 l 0.98931,-0.81091 2.18448,-1.75906 1.15524,-0.98183 0.24327,-0.19961 0.32686,-0.28568 1.96116,-1.66674 1.22011,-1.10783 1.023,-0.89201 v -0.0312 l 0.40795,-0.37427 1.24756,-1.13279 2.2456,-2.13207 0.892,-0.83337 0.28694,-0.28569 0.4354,-0.41294 1.49707,-1.51079 2.4552,-2.44273 0.70736,-0.74853 1.34112,-1.35236 1.9437,-2.11336 0.82838,-0.87329 1.06043,-1.17893 1.95367,-2.12086 1.19516,-1.37854 0.51648,-0.57513 1.1777,-1.37232 2.77457,-3.20123 0.74854,-0.9207 0.0399,-0.0474 v 0 l 4.54984,-5.61401 -0.59758,1.49707 -0.34308,0.88577 -1.5844,3.91109 -2.46017,6.43741 -0.40172,1.13278 -0.31813,0.82089 v 0 l -0.52647,1.56444 -0.96811,2.72591 -1.20639,3.66533 -0.14221,0.49902 -0.26574,0.78596 v 0 l -0.29068,1.1228 -0.69738,2.39656 -0.53021,2.31422 -0.0412,0.20211 -0.12476,0.49902 -0.0748,0.49902 -0.22831,1.03797 -0.33683,2.172 -0.0798,0.95438 -0.0162,0.10854 v 0 0.0911 l -0.0736,0.87329 v 1.88256 l 0.0736,0.63876 v 0.0873 l 0.0212,0.10355 0.0986,0.86206 0.38425,1.44093 0.0511,0.24952 v 0 0 l 0.15594,0.29317 0.49902,1.08288 0.27696,0.36304 0.15095,0.28195 v 0 0 l 0.0374,0.0711 v -0.0287 l 0.37427,0.40795 0.1023,0.13349 0.0898,0.0761 0.17466,0.19088 0.45162,0.34432 0.2757,0.23454 0.12477,0.0674 0.0711,0.0549 1.20765,0.65122 0.66619,0.22581 0.47033,0.18589 0.19961,0.0437 v 0 h 0.0175 0.01 0.015 v 0 l 0.0936,0.0175 1.20888,0.26324 0.22582,0.0299 0.32685,0.0674 0.49903,0.0412 0.6113,0.0798 0.58635,0.0187 0.35555,0.0299 0.31689,-0.007 0.23578,0.007 1.59438,-0.0249 0.67369,-0.0437 h 0.19462 v 0 h 0.0237 0.0212 l 0.24952,-0.0237 1.10908,-0.0711 1.53948,-0.18589 0.28944,-0.0287 v 0 h 0.0299 0.015 l 0.1572,-0.0262 0.35555,-0.0424 3.30229,-0.53147 0.65372,-0.14097 0.45536,-0.0748 4.46376,-0.98807 0.11727,-0.0249 h 0.0225 l 0.63001,-0.13972 h 0.0237 l -0.006,-0.0175 5.23975,-1.30369 3.33222,-0.94316 0.3568,-0.0923 0.4354,-0.12476 1.92623,-0.54517 6.09931,-1.87134 0.84211,-0.24952 1.03297,-0.33933 4.63343,-1.46963 12.86108,-4.27788 19.93472,-6.91895 13.62459,-4.82181 27.4787,-9.90686 v 0 h 0.007 l 0.65247,-0.60257 3.61792,-3.15632 3.92606,-3.0615 9.28682,-6.46111 0.0611,-0.02 z m -124.6747,28.39067 -0.0137,-0.15096 0.0162,0.14972 z m -440.57259,105.69186 0.0811,-0.0773 -0.0324,0.0324 z m -2.22316,2.05098 -10.6242,9.8083 -10.86373,9.25689 -1.64428,1.34612 -9.15083,7.12355 -1.84515,1.37855 -9.23192,6.44488 -1.7391,1.13528 -7.21463,4.43258 -1.28748,0.76973 -0.23454,0.12477 -7.21961,3.80255 -0.33061,0.16592 -0.892,0.40421 -5.38571,2.29301 -1.01801,0.39673 -4.60723,1.46837 -0.91696,0.23205 -3.63538,0.62378 h -2.61987 l -0.3044,-0.0599 -1.47836,-0.45911 -0.64374,-0.42791 -0.38424,-0.52771 -0.23829,-0.59634 -0.0474,-0.69863 v -0.0175 l 0.4117,-1.59064 0.18214,-0.38924 1.24755,-2.08093 0.18464,-0.24202 2.64108,-3.02409 0.17217,-0.16716 4.48247,-4.03835 0.009,-0.007 v 0 l 0.4067,-0.33309 5.96208,-4.55235 1.23134,-0.85457 8.36737,-5.58033 0.48905,-0.31064 12.72508,-7.7149 15.39362,-8.63186 2.37037,-1.30494 21.90586,-11.56236 2.25808,-1.16647 17.36975,-8.85143 -2.29176,2.29177 -8.18024,8.10039 z m 165.92521,-110.40887 8.92253,-8.56699 1.18269,-1.07415 9.83575,-8.5495 5.56785,-4.45753 1.08288,-0.82464 4.14689,-3.11889 3.49316,-2.49512 2.67351,-1.85761 1.05294,-0.68615 3.55554,-2.27555 1.40476,-0.83213 2.38781,-1.407238 2.98042,-1.581904 1.42097,-0.693643 1.4347,-0.643739 0.95562,-0.400466 0.33186,-0.124756 1.72537,-0.586352 1.11407,-0.281949 0.54518,-0.124755 0.58011,-0.04865 0.89699,-0.01746 0.69988,0.162182 0.0948,0.05739 0.34059,0.232046 0.24951,0.330602 0.0998,0.266978 0.0973,0.401714 -0.25949,1.319916 -0.12476,0.285691 -0.40546,0.926936 -0.28194,0.49029 -0.88826,1.425957 -0.21209,0.32437 -1.55944,2.0148 -0.23704,0.28569 -2.60615,2.90681 -2.61987,2.63734 -2.86939,2.66603 -1.18143,1.07914 -1.48335,1.29496 -3.32848,2.81949 -0.43041,0.3518 -4.4413,3.50813 -0.93069,0.71735 -5.18858,3.82876 -4.93535,3.46446 -2.74462,1.85887 -4.8343,3.16007 -0.0312,0.0187 v 0 l -4.43631,2.78954 -8.86515,5.28964 -6.14173,3.46447 -3.52186,1.95867 v 0 l -8.80152,4.62594 5.64895,-6.80668 1.87134,-2.07594 5.80862,-6.21158 z m 11.22803,1.99609 -0.92694,0.58386 -3.09519,1.81395 z M 655.71645,95.060173 Z M 421.5673,198.26315 l -0.11727,-0.009 v 0 l 0.10604,0.01 z m -265.35558,4.9578 -1.4297,1.51578 -6.21534,6.19288 -0.8396,0.79095 -5.58781,5.17363 -1.38978,1.23383 -3.80755,3.28233 -2.79328,2.32295 -5.3433,4.22423 -0.91446,0.67992 -5.65392,4.1344 -0.82839,0.57638 -5.35576,3.60918 -1.80022,1.16647 -6.03319,3.69901 -5.14494,2.88186 -4.289099,2.25683 -3.886143,1.9125 -1.67048,0.80344 -5.64021,2.45768 -1.277499,0.50651 -4.435069,1.70915 -2.214415,0.77474 -2.815738,0.93566 -3.199986,0.99805 -0.57762,0.16343 -3.329732,0.8733 -0.853329,0.21582 -3.483183,0.74105 -2.321705,0.41918 -1.130287,0.18963 -1.845139,0.26573 -2.288021,0.24952 -0.920698,0.0886 -2.759598,0.14098 -0.696137,0.0137 -2.517572,-0.0187 -0.449121,-0.0162 -2.48264,-0.22332 -0.175906,-0.0249 -2.411529,-0.39049 -1.98237,-0.50775 -2.018548,-0.72608 -2.382836,-1.36234 -0.259492,-0.17091 v 0 l -1.201399,-1.07415 -1.357343,-1.84639 -0.202104,-0.42791 -0.318127,-0.78845 -0.305652,-1.19891 -0.03742,-0.34931 -0.08608,-0.96686 0.09232,-1.59687 0.315631,-1.6343 0.124756,-0.4067 0.499023,-1.49707 0.225808,-0.519 0.400466,-0.90073 0.249512,-0.49903 0.80717,-1.43967 0.3069,-0.49903 1.135277,-1.70167 0.05115,-0.0748 0.659958,-0.8658 1.151495,-1.44593 0.09481,-0.10978 v 0.0175 l 1.797732,-2.00482 1.621825,-1.67173 0.499023,-0.49902 2.830709,-2.58369 0.300661,-0.26199 3.180025,-2.64357 0.159688,-0.12476 2.508839,-1.89879 2.676012,-1.95367 1.30245,-0.88826 2.700963,-1.8102 1.076643,-0.69614 2.954216,-1.82767 2.426501,-1.45341 2.2219,-1.26752 2.19695,-1.24756 6.373774,-3.38587 0.671186,-0.3306 5.907187,-2.90182 2.483887,-1.13528 4.600995,-2.08592 3.24365,-1.38728 3.152579,-1.34612 6.388756,-2.55624 4.78688,-1.83267 3.96348,-1.46587 2.73216,-0.98433 4.1868,-1.44842 6.47982,-2.18572 3.99217,-1.27874 5.33956,-1.68296 3.43577,-1.04545 12.01024,-3.52685 6.4087,-1.79399 21.29706,-5.63646 -5.56784,6.92519 -2.65107,3.23492 -6.24527,7.36059 -1.16522,1.31742 -3.65908,4.04958 z m -11.97655,11.78693 -0.33935,0.31937 -0.15593,0.13848 z m -25.06844,19.89855 -0.57886,0.40421 -0.52273,0.33808 z m -83.607586,12.39698 0.01996,-0.11602 0.01497,-0.0437 -0.01247,0.0399 z m 13.972649,-18.17817 0.298166,-0.23827 -0.300662,0.2495 z m -2.811996,2.47516 -0.6637,0.60756 0.239531,-0.23829 z m 97.083703,-45.62694 1.72039,-0.52397 1.81645,-0.51399 z M 43.311469,259.25501 v 0 l -0.08484,-0.0312 z m 0.04366,0.0137 0.06737,0.0175 v 0 l 0.03119,0.009 -0.09981,-0.0249 z M 414.0545,73.382605 l 0.0262,-0.06488 -0.0237,0.06612 z m -2.30923,5.269686 -0.0287,0.06238 1.55571,-3.505639 v 0.01123 z m -1.21387,2.609891 -4.35523,8.2763 -0.27197,0.499022 -0.51524,0.893252 -5.96083,9.814544 -0.0137,0.0212 -6.61205,9.91434 -0.0462,0.009 -3.39335,0.64125 -1.17022,0.2495 -1.79523,0.35057 -0.45785,0.0761 -0.70613,0.15096 -1.39976,0.27321 -0.18338,0.0337 -0.0811,0.0175 -1.14901,0.22456 -1.63055,0.32686 -0.56141,0.10604 -0.7847,0.16343 -0.71486,0.14347 -1.92498,0.37427 -1.15524,0.24203 -1.13403,0.21582 -1.13403,0.24203 -0.98807,0.20211 -0.31313,0.0624 h -0.0337 l -0.95439,0.18713 -0.42916,0.0898 -1.50455,0.29941 -0.35681,0.0686 -0.2258,0.0474 -2.09091,0.41793 -1.10534,0.20835 -1.018,0.21458 -2.67103,0.53271 -4.82056,0.98931 -0.62377,0.12476 -1.11533,0.23828 h -0.0237 l -1.15149,0.21583 -2.26432,0.48155 -1.15774,0.21708 -3.42205,0.72359 -1.13403,0.21582 -2.86938,0.60881 -0.79595,0.16343 -0.88576,0.16842 -0.54518,0.12476 -1.24756,0.26198 -0.49903,0.0936 -2.28802,0.4828 -1.13403,0.21708 -3.44824,0.72358 -1.10783,0.24078 -4.57979,0.96436 -1.13404,0.21708 -1.13278,0.26448 -3.33222,0.70362 -0.66994,0.13973 -0.72857,0.15594 -4.40513,0.92944 -1.10908,0.24202 -3.447,0.72234 -0.54768,0.12475 -0.0786,0.0162 -2.69722,0.58509 -4.63093,0.98183 -1.13403,0.26449 -3.42205,0.72358 -1.13278,0.26573 -1.13404,0.24078 -0.34432,0.0811 -3.01784,0.65373 -0.0599,0.0125 h -0.0212 l -3.08895,0.66993 -0.85209,0.18714 -0.59384,0.12476 -0.36053,0.0848 -7.4105,1.63056 -0.20834,0.0437 -0.10479,0.0249 -0.76351,0.16842 -10.341,2.31422 -1.23759,0.2807 -0.0399,0.009 -0.0836,0.0199 -1.41473,0.32063 -0.7922,0.16468 -1.10783,0.26573 -0.6425,0.14721 -0.6138,0.13973 -1.03422,0.21957 -1.13278,0.26573 -1.13279,0.24077 -4.12567,0.96063 -0.60008,0.13598 -0.96311,0.20585 -2.08218,0.48654 -0.26947,0.0611 -1.04795,0.22332 -2.14081,0.49902 -0.12475,0.0287 -2.32795,0.53894 -1.07164,0.2333 -1.15649,0.26448 -5.66392,1.32741 -1.15773,0.26447 -1.13279,0.24079 -7.93322,1.85636 -0.0973,0.0287 7.58391,-8.74414 4.00092,-4.47873 5.45183,-6.00824 2.14829,-2.31547 7.67623,-8.07045 1.05667,-1.09411 2.10463,-2.12085 4.10697,-4.10696 3.01285,-2.96919 6.01822,-5.75373 0.36554,-0.33934 5.0077,-4.600991 3.93978,-3.521857 3.1376,-2.754607 4.33153,-3.70899 3.02907,-2.537533 3.36841,-2.744628 3.46571,-2.797024 1.49707,-1.163972 5.19358,-3.975968 1.16398,-0.865804 3.67281,-2.68724 3.76388,-2.683497 4.61597,-3.178778 3.65908,-2.392817 3.45699,-2.23188 0.51649,-0.319375 5.84605,-3.564273 1.90502,-1.094109 4.0633,-2.302991 3.53058,-1.906269 1.85762,-0.980581 2.53878,-1.273756 2.53878,-1.263777 6.4349,-2.941741 5.62275,-2.329191 2.27929,-0.864558 3.43578,-1.232587 3.10891,-1.046701 0.87328,-0.274463 3.10018,-0.91446 1.20639,-0.348068 4.1918,-1.031731 0.56515,-0.124755 3.81004,-0.748535 2.84319,-0.43415 1.22884,-0.168421 3.89986,-0.374267 0.95812,-0.03867 2.76335,-0.08359 1.70042,0.05365 1.52451,0.0761 2.32171,0.202104 0.32561,0.03742 2.14331,0.35805 1.57941,0.366782 0.46284,0.114775 1.33863,0.389238 0.95314,0.335593 1.62182,0.651226 0.55142,0.249511 1.56693,0.832121 0.59509,0.334345 1.87134,1.361087 0.62377,0.55641 0.38301,0.353059 0.4304,0.42916 0.71984,0.775981 0.38674,0.466587 0.8733,1.218864 v 0 l 0.96811,1.7366 1.17269,2.99414 0.2046,0.814654 0.56016,2.941743 0.0462,0.249511 0.0374,0.44912 0.0798,3.783844 -0.0324,0.819646 -0.0823,0.721088 -0.42292,3.519361 -0.27696,1.477109 -1.16272,4.844267 -0.28444,0.921946 -1.87134,5.384459 -0.64748,1.606855 z m -160.46839,39.735968 -0.95937,1.00927 0.34058,-0.36678 z M 418.56692,54.752823 v -0.02495 l 0.37427,-5.182355 z m -11.93914,-19.935976 -0.12475,-0.05115 v -0.0075 z m 7.14727,39.248173 v -0.0075 l 0.2495,-0.567639 v 0 z m 4.75944,-18.463857 v -0.02495 l -0.0187,7.721137 z M 456.79084,41.92668 v 0 l -0.0312,0.106043 z M 317.31262,314.65782 v 0 l -0.0249,-0.72484 z m -0.6662,-15.46972 -0.42042,0.89949 0.36678,-0.80093 z m 32.64735,18.83812 0.0761,-0.0175 -0.0624,0.015 z M 547.51326,182.85457 h 0.01 v 0 z m 313.28301,-46.89321 -0.1023,2.50759 0.0986,-2.49512 z m 28.39941,6.52348 -0.0724,0.015 h -0.0424 z m -84.3711,-7.77978 v -0.0137 -0.02 z m 0.44163,-2.14953 0.0162,-0.0798 0.0212,-0.0649 z m 54.06792,-72.86612 6.22032,-0.698633 1.82767,-0.167173 -9.68978,1.071653 z m -12.26849,1.687946 6.09682,-0.915708 0.61255,-0.0761 -9.38663,1.433444 z m -12.896,2.337923 4.49994,-0.880776 -6.33884,1.299955 z m -6.74929,1.54323 0.14846,-0.03368 -6.08185,1.635549 z m -12.58037,3.640374 0.82837,-0.25575 -3.75389,1.283737 z m -70.18886,43.457437 2.92552,-2.45146 -6.58461,5.58906 z m -19.19493,14.33818 -0.87329,1.21137 1.63555,-2.29675 z m 15.08672,-21.71749 -4.94158,7.25331 -0.0736,0.10604 5.876,-8.65057 z m 11.16065,-17.091543 -2.08218,3.243651 2.92678,-4.615965 z m 6.05191,-9.833251 -0.81341,1.322411 3.33347,-5.698845 z M 593.3398,160.4372 l -2.9592,1.51703 4.33152,-2.2531 z m 17.73779,-9.76214 -3.28732,1.8651 4.19055,-2.40654 z m 7.83466,-4.7008 -1.55821,0.93443 7.76107,-4.90541 z m 13.86037,-9.10717 -2.76833,1.87134 5.87974,-4.14065 z m 11.35277,-8.4834 -3.75639,2.9405 -0.24952,0.17839 4.79187,-3.7489 z m 10.53439,-8.84518 -3.3497,2.95795 -0.39672,0.33311 3.91483,-3.45325 z m 8.19521,-7.88207 -3.97597,3.97597 -0.20086,0.18588 4.60224,-4.61597 z m 4.84426,-5.32583 -2.05473,2.32545 3.321,-3.8275 z m 6.02695,-7.713649 -2.2456,3.085209 -0.52023,0.65497 2.93051,-4.003415 z m 2.14206,-3.324743 -0.42917,0.666197 0.91323,-1.53824 z m 2.62985,-4.990231 -0.64374,1.36358 1.2276,-2.797024 z m 1.32241,-3.617918 -0.0886,0.26573 0.29942,-1.152744 z m 0.67368,-4.139398 -0.0474,1.081633 -0.0237,0.15844 0.0711,-1.442177 z m -0.12475,-2.045995 0.0536,0.452864 -0.24951,-1.232588 z m -0.62379,-1.878822 -0.56888,-0.968104 0.35306,0.51524 z m -84.33491,38.175266 0.65247,-0.56638 -4.22423,3.8799 z m -11.78693,11.30537 1.46215,-1.4509 -3.18003,3.25362 z m -11.42513,12.48556 5.56785,-6.33883 0.29192,-0.30565 -6.16667,7.01751 z m -5.61401,6.91771 2.77332,-3.4707 v -0.007 l -4.82556,6.16417 z m -7.83217,10.94234 3.15508,-4.65215 1.13153,-1.56069 -4.5748,6.68192 z m -2.60366,4.24169 1.07665,-1.75281 -2.26557,3.86743 z m -9.50888,-37.10112 -2.56623,3.74267 6.57713,-9.72347 z m 18.99532,-28.373213 -0.0699,0.104796 0.17715,-0.266978 z m -48.7658,6.943913 0.26074,-0.13474 v 0.0112 l 0.0349,-0.0162 z m -62.5488,-91.862686 -1.58565,-1.996093 0.64124,0.734812 z m -3.78634,-4.1967854 1.1465,1.0741474 -1.9961,-1.7715323 z m -2.07719,-1.6130924 -1.90627,-1.1801898 1.54447,0.9157075 z m -5.99576,-3.2037288 1.44466,0.6574631 -2.13955,-0.91446 z m -5.99951,-1.8551187 2.04973,0.5314597 1.43345,0.4316551 -3.68404,-0.9980464 z m -4.28786,-0.77099078 2.16826,0.36179178 0.1023,0.019961 -3.15882,-0.47781467 z m -6.07311,-0.53021213 0.93692,0.0698633 -2.28428,-0.09481441 z m -8.50585,0.096062 2.75586,-0.10229975 -3.6541,0.17715323 z m -9.32799,0.98931341 4.69955,-0.60257046 0.24202,-0.0199609 -6.18039,0.82338816 z m -7.11108,1.2537958 3.54431,-0.6761765 0.24203,-0.038674 -6.07187,1.2475579 z m -7.18219,1.6629947 0.26074,-0.059883 -2.8594,0.7834664 z m -14.36439,4.3153029 1.62183,-0.5239743 -3.46696,1.1901702 z m -13.47362,5.0837984 4.4912,-1.764046 -6.54717,2.649813 z m -14.14855,6.388744 7.03747,-3.327237 1.15399,-0.499023 -8.41727,3.936045 z m -7.61759,3.807547 2.01855,-1.009274 -7.51529,3.985948 z m -17.40343,9.787092 4.91787,-2.893086 2.04973,-1.16522 -9.38413,5.562861 z m -9.8108,6.170422 2.89433,-1.838901 -5.82235,3.8063 z m -19.04148,13.209143 5.22477,-3.742674 -5.68886,4.096981 z m -9.30429,7.111081 2.19072,-1.675471 -4.98275,3.919827 z m -17.37973,14.346916 4.94034,-4.180566 -5.79491,4.945319 z m -16.80086,15.307536 8.33992,-7.73486 2.31298,-2.069698 -10.83629,9.987949 z m -7.23583,7.084882 4.86547,-4.761929 -8.76035,8.714193 z m -19.33092,20.176764 5.18111,-5.61402 3.94229,-4.11694 -9.197,9.81703 z m -5.11498,5.6876 0.60381,-0.67118 -3.46946,3.97097 z m -17.2163,20.15306 1.5819,-1.88257 -4.37893,5.34579 z m -40.62922,18.71337 10.62919,-2.74463 1.39976,-0.34682 -13.34887,3.45574 z m -41.91795,12.19737 2.10338,-0.65871 -2.74462,0.87329 z m -19.3571,6.62827 6.55716,-2.33917 1.56319,-0.52397 -9.64113,3.43203 z m -12.460617,4.77316 5.213545,-2.04848 -11.057106,4.43257 z m -13.957678,5.88099 2.730904,-1.1777 -6.065626,2.72218 z m -12.702634,6.002 1.318668,-0.64249 -5.837323,2.97168 z m -13.970155,7.51529 4.581033,-2.60365 0.521479,-0.27696 -7.819693,4.50369 z m -11.689617,7.25455 5.758727,-3.71023 0.05239,-0.0312 -6.487301,4.21052 z m -5.495493,3.8325 0.558906,-0.38924 -3.064003,2.27804 z m -8.797779,6.86905 1.085376,-0.87329 -3.585482,3.10143 z m -8.02554,7.47288 1.996093,-1.9462 -2.879364,2.90182 z m -3.566769,3.85495 0.523975,-0.56514 -2.198197,2.63858 z m -6.0893296,8.02429 1.3723138,-2.02354 0.5776193,-0.77348 -2.3117249,3.39834 z m -1.8064639,3.01286 0.026199,-0.0449 -0.3904856,0.74854 z m -2.8444321,5.90344 0.2495116,-0.56764 -0.7148507,1.91375 z m -1.83640529,6.21658 0.26572984,-1.05793 -0.39048563,1.81644 z m -0.45910132,3.32349 0.10604243,-1.03921 -0.19337149,3.24365 -0.0087329,-0.5876 z M 0.29442367,265.7473 0.053645,263.41063 v -0.14472 l 0.27945297,2.67477 z m 32.90434133,23.80216 0.506508,0.0524 -0.356801,-0.0324 z m 26.659066,-1.25878 -0.09731,0.015 0.170915,-0.0299 z m 114.201449,-75.90142 -0.14471,0.16467 0.65122,-0.76724 z m 155.02405,-24.8052 -0.49902,0.54144 0.6874,-0.74854 z m -9.21945,9.92807 -3.94104,4.24169 -0.0324,0.0324 v 0 l -2.89808,3.05278 z m -85.25063,104.40438 -24.27124,22.46478 -3.25862,2.98291 28.76868,-26.60917 z m 23.98555,-22.51468 -5.3645,5.03639 11.89671,-11.27418 z m 35.07385,-33.67658 -10.14265,9.84697 17.9062,-17.45832 z m 25.98663,-25.69969 -2.17075,2.16077 9.12713,-9.20948 z m 36.90651,-38.0393 -8.51084,8.94375 -3.91984,4.06205 13.0008,-13.61086 z m 15.97997,-17.30612 -7.665,8.35864 -1.85513,1.9961 13.17921,-14.42926 z m 17.57309,-19.86361 -10.05157,11.49874 -0.23579,0.26198 11.37398,-13.03947 z m 9.66608,-11.37648 -1.01301,1.19142 4.31904,-5.24849 z m 80.60971,-24.55195 0.95189,-0.56264 -1.76405,1.06915 z m -49.50435,37.74612 6.50851,-5.88099 0.0362,-0.0324 -7.27576,6.61205 z m -12.36578,12.12377 6.09805,-6.14672 0.85583,-0.81591 -7.0774,7.09362 z m -5.39944,5.73876 1.68919,-1.79523 -5.11499,5.65143 z m -11.37648,13.28275 3.0615,-3.76138 1.34987,-1.5869 -5.40068,6.63077 z m -5.39943,7.13354 2.48014,-3.33597 -3.93355,5.41815 z m -6.4112,9.59247 0.42791,-0.66744 -0.51025,0.80841 z m -4.19304,7.39553 1.3012,-2.45894 0.42916,-0.73356 -2.13831,4.03959 z m -2.53005,5.48925 0.65622,-1.47711 -1.03298,2.49512 z m -2.0959,6.28893 0.37427,-1.26751 -0.42666,1.5083 z m -0.82089,4.67336 0.19337,-1.51703 0.11477,-0.58012 -0.31563,2.33669 z m 0.0249,3.39585 -0.0724,-1.90252 0.007,-0.21583 0.0973,2.30299 z m 0.23704,1.37232 0.45161,1.6318 -0.37426,-1.19765 z m 1.25628,3.39336 -0.36303,-0.73981 0.70861,1.21638 z m 43.11437,1.93371 5.32706,-2.58494 -8.60814,4.22174 z m -24.78025,12.4132 5.50547,-2.7808 -13.47363,6.9202 z m -18.75329,9.88315 4.02212,-2.15078 -7.9669,4.34773 z m -22.95507,13.13679 5.61401,-3.34969 3.43453,-1.98362 -9.51263,5.63398 z m -5.88098,3.68903 1.46836,-0.9207 -5.39568,3.49316 z m -11.49625,7.73486 0.53769,-0.37427 -1.46214,1.0754 z m -10.62671,8.25134 2.13832,-1.73659 -2.54627,2.09839 z m -3.01035,2.67976 0.43291,-0.38425 -2.24561,2.16701 z m -5.61401,5.76123 0.21458,-0.22955 -0.6612,0.77472 z m -4.57729,6.11927 0.98682,-1.51703 0.54394,-0.77474 -1.55322,2.33293 z m -1.13278,2.0697 0.2021,-0.37427 -1.06791,2.33792 z m -1.51703,4.01464 0.23953,-0.76476 -0.3568,1.40475 z m -0.41045,3.82501 0.0487,-1.85013 v -0.0137 l -0.0175,2.08342 z m 232.74192,-120.44923 0.0337,-0.37426 0.0162,2.61987 -0.0499,-0.73232 z m 0.28943,4.2417 -0.12476,-0.8421 0.30441,1.54697 z m 1.10783,3.44201 -0.28569,-0.73231 0.51274,1.1228 z m 219.77484,-84.89756 v 0.007 l -0.19462,0.14222 z m 56.18253,-26.686514 2.22564,-1.781512 -3.89862,3.234918 z m -13.7381,12.943414 0.55515,-0.563897 -2.81324,3.068993 z m -8.19646,9.40035 0.99805,-1.18767 -2.86939,3.57549 z m -6.98633,9.37664 0.24078,-0.33933 -0.34058,0.49154 z m -11.49999,21.18229 0.0686,-0.15844 -0.17466,0.46284 z m -3.46696,12.65149 0.0836,-0.51898 -0.12476,0.89074 z m -0.28944,5.0838 0.007,-0.79844 0.006,1.08662 z m 0.23954,2.84068 -0.0349,-0.28444 0.16593,0.97559 z m 0.87328,3.44326 -0.0449,-0.14347 0.13473,0.33684 z m 1.66051,3.08022 -0.0748,-0.12475 0.14348,0.20086 z m 84.22888,-45.46725 0.47656,-1.17519 -2.05098,5.27092 z m -4.67835,12.67769 0.0686,-0.19088 -0.22206,0.65871 z m -2.6024,8.46094 0.29816,-1.02424 -0.5639,2.18072 z m -1.32616,6.72309 0.33684,-2.16951 0.0474,-0.23204 -0.41044,2.71718 z m -0.16967,3.90111 v -1.87134 l 0.0312,-0.36553 v 2.51009 z m 0.19338,1.68545 -0.0462,-0.40047 0.22457,1.07166 z m 1.08288,3.05403 -0.21334,-0.46535 0.33435,0.62378 z m 30.27822,0.15718 -2.17199,0.54145 3.39211,-0.88702 z m 18.65599,-5.6402 -0.85583,0.27071 5.77744,-1.90128 z m 46.42661,-16.00617 -3.65908,1.29621 10.99598,-3.94104 z"
     style="fill:#000000;stroke-width:0.124755"
     id="path194" />
</svg>
